<svg xmlns="http://www.w3.org/2000/svg" width="87.41" height="100.82"><path fill="#1b212f" d="M76.364 69.301c-11.277-5.066-13.4-5.822-15.43-7.648a49.862 49.862 0 0 0-3.615-3.524 14.04 14.04 0 0 0 .093-5.164 22.434 22.434 0 0 0 2.554-4.438 29.837 29.837 0 0 0 2.038-7.426 5.255 5.255 0 0 0 4.661-6.533 4.654 4.654 0 0 0-3.848-3.367 18.829 18.829 0 0 0 .143-9.545l-.025.006a12.537 12.537 0 0 0 .967-2.306 10.98 10.98 0 0 0-.6-7.816l13.1-4.069a.788.788 0 0 0-.038-1.514 265.27 265.27 0 0 0-22.54-4.8C43.203-.622 39.844-.23 30.993 1.528 23.117 3.091 14.711 4.141 6.904 6.353a.789.789 0 0 0-.416 1.23c2.083 2.779 6.572 2.68 9.283 3.473q4.188 1.229 8.373 2.445a14.744 14.744 0 0 0-.065 7.375l-.1-.025a16.961 16.961 0 0 0 .955 10.786c-2.917 1.377-4.658 5.348-2.754 7.914a4.507 4.507 0 0 0 3.776 1.615 25.082 25.082 0 0 0 3.818 10.872 18.756 18.756 0 0 0 .128 7.229c-4.758 2.02-16.186 9.3-20.531 12.734-12.033 9.494-10.483 18.845-6.327 22.891 2.623 2.565 6.344 3.291 9.93 3.814 19.187 2.8 38.9 3.015 58.045-.543 6.238-1.162 14.06-3.382 16.032-10.548 2.035-7.403-5.007-15.753-10.687-18.314Zm-21.07-9.556c-.153.5-.477 1.375-.58 1.627-.028.069-.065.135-.095.2l-.353-.353.139-.139a.395.395 0 0 0-.558-.558l-.139.139-1.341-1.339a.395.395 0 0 0-.558.558l1.341 1.341-1.478 1.48-.323-.323a.395.395 0 1 0-.558.558l.381.381a.371.371 0 0 0 .082.359.3.3 0 0 0 .359.082l.632.63a.395.395 0 0 0 .558-.558l-.573-.573 1.478-1.478.558.558a18.065 18.065 0 0 1-2.985 4.466.377.377 0 0 0-.039-.463l-.049-.049a.369.369 0 0 0-.518-.518l-1.177-1.172a.395.395 0 0 0-.558.558l1.156 1.156-1.479 1.479-1.016-1.016.317-.317a.395.395 0 0 0-.558-.558l-4.387 4.388-.416-.416a.395.395 0 0 0-.558.558l.416.416-1.035 1.035c-3.527-3.889-11.159-7.448-10.29-18a16.234 16.234 0 0 0 24.933.766 15.124 15.124 0 0 1-.731 5.093ZM44.268 71.58l-.734-.734 1.155-1.155 1.068 1.068a.395.395 0 0 0 .558-.558l-1.071-1.067 1.8-1.8 1.016 1.016-.877.877a.395.395 0 0 0 .558.558l.931-.931c.033.009.061.039.1.039a.392.392 0 0 0 .279-.115.368.368 0 0 0 .076-.375l1.533-1.533.03.028a.348.348 0 0 0 .487.028 18.164 18.164 0 0 1-3.259 2.856c-.353.236-.718.468-1.087.7a14.209 14.209 0 0 0-3.971 3.313 11.128 11.128 0 0 0-.942-1.33l1.063-1.064.734.734a.392.392 0 1 0 .553-.554Zm-6.159-14.987a.378.378 0 0 0 .537-.008.389.389 0 0 0 .008-.537l1.441-1.447 1.949 1.953-1.089 1.089a.394.394 0 0 0 0 .558c.038.038.09.036.135.055a12.363 12.363 0 0 1-3.516-1.129Zm5.983.893-.931-.931 1.892-1.892 1.091 1.095-1.886 1.886a.394.394 0 0 0 .556.558l1.886-1.886a11.745 11.745 0 0 0 1.577 1.459 14.814 14.814 0 0 1-6.985.518.368.368 0 0 0 .219-.091l1.089-1.089.931.931a.395.395 0 1 0 .558-.558Zm3.352-5.216 1.095 1.095-1.835 1.836-1.095-1.1Zm9.86-2.327a.356.356 0 0 0 .158.065 19.167 19.167 0 0 1-1.5 2.281c-.134.175-.288.32-.427.488a.372.372 0 0 0-.088-.343l-.608-.606 2.177-2.177Zm-2.418 3.05a.307.307 0 0 0 .4.065 12.682 12.682 0 0 1-3.237 2.9.379.379 0 0 0-.106-.3l-.471-.471 2.8-2.8Zm-3.968 1.638-1.267-1.267 2.8-2.8 1.267 1.267Zm-.556.556-.975.975a.394.394 0 1 0 .556.558l.975-.975a2.258 2.258 0 0 0 .638.54 11.579 11.579 0 0 1-2.9 1.359.385.385 0 0 0-.019-.512l-1.377-1.377 1.835-1.835Zm14.782-20.194a3.679 3.679 0 0 1-2.921 4.5c.035-.32.066-.643.1-.966 0-1.553.287-2.33-.249-3.957 0-.625-.028-1.226-.079-1.818a3.032 3.032 0 0 1 3.149 2.241Zm-3.642-5.154a11.668 11.668 0 0 0-1.9-4.011 15.785 15.785 0 0 0 2.1-2.251 17.259 17.259 0 0 1-.196 6.262Zm-17.758.2 1.448-1.448.838.836a.394.394 0 0 0 .556-.558l-.838-.838 1.396-1.393 1.393 1.391-.721.721a.368.368 0 0 0 .2.638 48.188 48.188 0 0 1-4.264.651Zm-18.117-16.1 2.771.808c3.586 1.054 7.646 2.254 11.756 2.337 5.928.12 11.462-1.939 21.625-5.076a9.347 9.347 0 0 1 .613 6.9 11.021 11.021 0 0 1-.9 2.114l-1.01-1.01 1.331-1.331a.395.395 0 0 0-.558-.558l-1.331 1.331-.219-.219a.394.394 0 1 0-.558.556l.219.219-.764.764a.394.394 0 1 0 .558.556l.764-.764 1.153 1.155a13.871 13.871 0 0 1-2.853 3.243.377.377 0 0 0-.1-.244l-.633-.632.847-.847.458.458a.395.395 0 1 0 .558-.558l-.458-.458.63-.632a.392.392 0 0 0 0-.556c-.372-.372-.8.244-1.188.632l-.356-.356a.394.394 0 1 0-.558.556l.356.356-.847.847-.855-.854a.394.394 0 0 0-.558.556l.855.854-1.441 1.44-1.39-1.391 2.453-2.453a.395.395 0 0 0-.558-.558l-4.495 4.491-.673-.673a.395.395 0 0 0-.558.558l.673.673-1.3 1.3-1.393-1.391 1.838-1.838a.394.394 0 0 0-.556-.558l-2.031 2.033c-.038.019-.083.016-.117.049s-.03.077-.049.117l-1.591 1.591-.758-.758.29-.29a.394.394 0 1 0-.558-.556l-2.234 2.239-.81-.81a.394.394 0 0 0-.558.556l.81.81-.989.989a.369.369 0 0 0-.076.183L38.82 28.35l1.09-1.09a.394.394 0 1 0-.558-.556l-1.09 1.09-.129-.129a.395.395 0 0 0-.558.558l.129.129-.893.893-1.035-1.035a.395.395 0 0 0-.558.558l.981.981c-8.391-1.766-12.455-8.554-10.568-15.81Zm29.046-1.862-1.468-1.476 2.057-2.057 1.654 1.657-.258.258a.394.394 0 0 0 .558.556l.258-.258.714.714-3.472 1.076a.375.375 0 0 0-.038-.47Zm5.743-4.267 1.871 1.87a.395.395 0 0 0 .558-.558l-1.866-1.871 2.651-2.65c1.129.235 2.254.485 3.381.734l-1.696 1.694-1.129-1.128a.393.393 0 0 0-.556.556l1.129 1.129-1.263 1.262a.394.394 0 0 0 .558.556l1.263-1.262.66.66a.394.394 0 1 0 .558-.556l-.66-.66 2.053-2.053c.751.17 1.5.348 2.249.525l-1.853 1.853a.374.374 0 0 0-.052.43c-1.961.61-6.8 2.112-9.233 2.865l-1.006-1.005Zm-7.427 16.884 1.391 1.391-.31.31a.395.395 0 0 0 .558.558l.31-.31.315.315a20.644 20.644 0 0 1-2.034.933l-1.712-1.714Zm2.506 1.393 1.437-1.437.633.632a.376.376 0 0 0 .165.069 12.793 12.793 0 0 1-1.764 1.207Zm-3.088 2.1a27.24 27.24 0 0 1-1.972.621l-.783-.781 1.3-1.3Zm-2.854.854c-.384.095-.784.183-1.189.269h.011l.721-.721Zm-12.235.81.947-.947 1.263 1.263a21.739 21.739 0 0 1-2.18-.2.417.417 0 0 0-.03-.113Zm5.592.183c.009 0 .017-.011.027-.011a.485.485 0 0 0 .027.066 29.84 29.84 0 0 1-2 .1l.969-.969.7.7a.387.387 0 0 0 .277.117Zm.313-.588c-.016-.027-.011-.061-.035-.085l-.7-.7 1.391-1.391.758.756ZM69.337 8.01l1.738-1.738c.728.173 1.46.339 2.185.518ZM8.674 7.501c7.338-1.939 15.138-2.943 22.662-4.436C39.821 1.381 43.06.951 53.558 2.708q4.575.768 9.144 1.708l-5.23 5.23-1.654-1.655 2.509-2.509a.394.394 0 1 0-.558-.556l-2.542 2.541a.356.356 0 0 0-.493.495l-2.09 2.088-1.865-1.867a.394.394 0 0 0-.558.556l1.867 1.867-2.4 2.4a.395.395 0 0 0 .558.558l2.4-2.4 1.473 1.474c.038.038.088.036.135.055l-.3.095c-1.715.534-3.455 1.074-5.213 1.534a.391.391 0 0 0 0-.543l-2.3-2.3 2.6-2.6a.394.394 0 0 0-.558-.556l-2.6 2.6-.726-.726a.394.394 0 1 0-.556.558l.726.726-2.128 2.12-1.4-1.4a.393.393 0 0 0-.556.556l1.43 1.43a.375.375 0 0 0 .046.447.324.324 0 0 0 .447.046l.093.093a.394.394 0 1 0 .558-.556l-.061-.061 2.123-2.125 2.3 2.3a.38.38 0 0 0 .189.079 30.446 30.446 0 0 1-8.182 1.1 24.045 24.045 0 0 1-2.3-.173l.554-.554.428.428a.395.395 0 1 0 .558-.558l-.428-.428 4.823-4.824a.393.393 0 1 0-.556-.556l-4.821 4.822-1.2-1.2a.395.395 0 0 0-.558.558l1.2 1.2-.928.928c-.016.016-.011.041-.024.058a61.509 61.509 0 0 1-8.09-1.974c-4.781-1.4-8.6-2.508-12.632-3.692-2.314-.677-5.6-.739-7.541-2.043Zm18.77 19.406a8.516 8.516 0 0 0-1.306 3.554 15.684 15.684 0 0 1-1.011-6.808 13.451 13.451 0 0 0 2.317 3.254Zm-4.006 11.706c-1.347-1.813.291-4.874 2.423-5.674-.055.633-.11 1.274-.21 1.911a32.029 32.029 0 0 0 .115 4.753 2.966 2.966 0 0 1-2.328-.99Zm3.762-3.321.008-.2c.4-2.591.2-5.162 1.411-7.111 8.042 6.592 23.577 3.475 29.81-1.152 2.338 3.255 1.843 6.563 2.119 8.138.917 2.579-.66 9.374-1.673 12.016l-1.079-1.079 1.489-1.489a.395.395 0 0 0-.558-.558l-1.489 1.489-.8-.8a.394.394 0 0 0-.556.558l.8.8-.8.8a.394.394 0 1 0 .556.558l.8-.8 1.326 1.326c-.016.036-.028.077-.044.113-.224.506-.458.983-.7 1.446l-.391-.391a.28.28 0 0 0-.28-.28l-1.739-1.739a.395.395 0 0 0-.558.558l1.6 1.6-2.177 2.177-1.267-1.267.674-.674a.395.395 0 0 0-.558-.558l-.674.674-.233-.233a.395.395 0 0 0-.558.558l.233.233-2.8 2.8-1.095-1.095.671-.671a.395.395 0 0 0-.558-.558l-.811.811a.28.28 0 0 0-.279.279l-1.976 1.982-1.374-1.374a.395.395 0 1 0-.558.558l1.374 1.374-1.889 1.89-1.953-1.947 2.476-2.476a.395.395 0 0 0-.558-.558l-2.476 2.476-.52-.52a.395.395 0 0 0-.558.558l.52.52-1.437 1.437-1.6-1.6a.395.395 0 0 0-.558.558l1.6 1.6-.695.695a16.812 16.812 0 0 1-5.616-5.312c-3.2-4.633-4.25-11.312-4.028-16.139ZM42.11 75.86a.787.787 0 0 0 1.489-.049 5.49 5.49 0 0 1 2.114-2.683c1.98-1.506 8.773-4.661 11.21-13.3 1.575 1.405 2.427 2.938 5.009 4.507a22.8 22.8 0 0 1-17.535 17.717 36.424 36.424 0 0 1-18.742-18.818 40.992 40.992 0 0 1 4.641-2.433c2.681 8.573 9.787 9.664 11.814 15.061Zm4.185 23.275.221-.221.208.208-.428.013Zm10.575-.606c-.734.068-1.482.1-2.221.161a.385.385 0 0 0 .258-.107.394.394 0 0 0 0-.558l-1.117-1.117 2.144-2.144 2.276 2.276-1.236 1.236a.391.391 0 0 0-.104.252Zm-2.52.054a.387.387 0 0 0 .265.109c-.934.074-1.87.145-2.81.2l1.43-1.429Zm3.6-.17.813-.813.362.362a.395.395 0 0 0 .558-.558l-.362-.362 3.856-3.856 1.749 1.749-2.155 2.156a.394.394 0 0 0 .556.558l2.16-2.158 1.175 1.174a.395.395 0 0 0 .558-.558l-1.176-1.174 3.065-3.065 3 3-1.17 1.17a.389.389 0 0 0-.008.536c-4.064.76-8.257 1.367-12.977 1.838Zm8.872-8.872c.014.024.009.052.03.072l1.7 1.7-3.065 3.065-1.743-1.751Zm15.89-1.194-2.668 2.669-1.485-1.485 2.67-2.672Zm-3.228 3.228-2.34 2.339-1.485-1.485L78 90.088Zm-2.377 3.418a36.48 36.48 0 0 1-5.447 1.437l3.442-3.442Zm-4.444-.682-3-3 1.881-1.883 3 3Zm5.246.37-.21-.21 2.345-2.342.947.947a14.51 14.51 0 0 1-3.078 1.6Zm3.735-2.07-1.038-1.038 2.672-2.67.446.446a.395.395 0 0 0 .558-.558l-3.299-3.29a.394.394 0 0 0-.556.558l.247.247-2.67 2.67-1.367-1.375a.395.395 0 0 0-.558.558l1.365 1.373-2.341 2.341-3-3 3.417-3.417a.395.395 0 0 0-.558-.558l-3.417 3.417-.841-.841a.395.395 0 0 0-.558.558l.841.841-1.881 1.881-1.7-1.7c-.02-.02-.05-.016-.072-.03l2.917-2.917a.395.395 0 0 0-.558-.558l-6.518 6.518-1.031-1.036a.394.394 0 1 0-.556.558l1.04 1.04-3.856 3.856-2.278-2.276 6.277-6.277a.395.395 0 0 0-.558-.558l-6.277 6.277-.775-.775a.395.395 0 0 0-.558.558l.775.775-2.144 2.144-1.763-1.764a.395.395 0 1 0-.558.558l1.763 1.764-1.5 1.5a.39.39 0 0 0-.011.532c-1.115.065-2.238.106-3.362.148l-.732-.732 1.945-1.947 1.728 1.727a.395.395 0 1 0 .558-.558l-1.726-1.726 4.66-4.66a.395.395 0 0 0-.558-.558l-4.66 4.66-.05-.05a.395.395 0 0 0-.558.558l.05.05-1.947 1.946-1.369-1.368a.394.394 0 0 0-.556.558l1.369 1.369-.446.446a.37.37 0 0 0-.083.356q-2.233.054-4.485.055l1.222-1.222.586.588a.395.395 0 0 0 .558-.558l-.586-.588 5.134-5.136a.395.395 0 0 0-.558-.558l-5.134 5.134-1.237-1.237a.395.395 0 0 0-.558.558l1.237 1.237-1.632 1.632c-.038.038-.038.09-.057.137-1.643-.013-3.286-.024-4.946-.08l1.329-1.323.851.851a.395.395 0 0 0 .558-.558l-.851-.851 4.1-4.1a.395.395 0 1 0-.558-.558l-4.1 4.1-.775-.777a.395.395 0 0 0-.558.558l.777.777-1.435 1.433a.368.368 0 0 0-.058.414A198.511 198.511 0 0 1 13.2 97.151c-3.329-.49-6.773-1.15-9.056-3.386-3.184-3.1-5.45-11.339 6.2-20.529a133.233 133.233 0 0 1 13.97-9.213c6.1 13.636 18.424 19.637 20 19.637 2.55 0 15.835-4.371 19.045-18.547 1.575.811 2.027.986 12.355 5.625 4.323 1.947 8.948 7.371 9.888 12.081l-1.014 1.014-1.369-1.369a.394.394 0 0 0-.556.558l1.369 1.369-1.237 1.237a.395.395 0 0 0 .558.558l1.237-1.237 1.158 1.158a8.045 8.045 0 0 1-.219 1.09 10.544 10.544 0 0 1-3.885 5.414Zm4.179-7.547-.673-.671.616-.616a9.857 9.857 0 0 1 .053 1.287Z" data-name="Path 12246"/></svg>