<svg xmlns="http://www.w3.org/2000/svg" xmlns:xlink="http://www.w3.org/1999/xlink" width="348" height="285"><defs><path id="a" d="M0 .341h18.456v8.283H0z"/><path id="c" d="M.293.3h16.036v1.795H.293z"/><path id="e" d="M47.853 2.635c-.221.196-.43.406-.623.63-1.14 1.361-1.63 3.149-2.799 4.506-.076.091-.164.175-.248.263-2.288 2.047-5.853 2.474-8.396 4.31-.449.33-.868.696-1.256 1.096a21.261 21.261 0 0 0-2.743 3.334c-1.144 1.61-2.32 3.286-2.684 5.207-.73 3.849 1.89 7.498 2.376 11.372 1.084 8.667-8.505 16.357-6.69 24.909a11.408 11.408 0 0 0 3.086 5.539 166.396 166.396 0 0 0-6.923 6.673v.195h-.591l.059.7h-.06l.326 3.797-.325 5.528v.521h.02c.109 2.026.54 9.311 1.05 10.847.602 1.781.906 10.578.906 10.578s.665 12.432 1.274 14.076c.608 1.645-.256 7.618 2.903 9.028a6.648 6.648 0 0 0 3.173 1.315c-.16 1.309-.059 2.257.462 2.555.224.13.477.203.735.21a7.784 7.784 0 0 0-.57.997 14.812 14.812 0 0 1-3.667-.864c-3.393-1.4-14.655-4.55-17.926-2.334-3.271 2.215-11.143 4.223-7.508 13.139 3.635 8.915 5.329 9.139 5.329 9.139 1.118.812 2.1 1.799 2.907 2.922 1.091 1.64 11.262 5.395 13.805 5.395a25.061 25.061 0 0 1 3.236.16s-2.76 2.422-2.393 3.829-.84 12.666-.84 12.666 2.8 2.82 3.996-.878l.042.056c.224.304 1.434 1.68 3.712-.056a20.817 20.817 0 0 1 2.96-1.875l11.027-1.561c1.15-.072 2.302-.08 3.453-.024 1.749.143 3.467-.893 4.548-1.694 2.284.867 4.852 1.816 6.073 2.162 2.477.7 13.862 3.755 16.524 2.8a3.695 3.695 0 0 0 1.434-1.022l2.54.08-1.19.238s2.317.039 5.466.08l-.133.078 3.95-.035c5.78.052 12.272.07 13.126-.123 1.336-.297 8.281-.087 10.327 0h.57s7.631-1.522 4.483-9.265c-2.421-5.948-9.863-7.677-13.165-8.153.93-.185 1.731-.329 2.263-.413 2.306-.35 6.784-2.449 7.147-3.166.365-.718 4.118-2.8 5.088-3.986.969-1.186 3.736-9.594 1.437-15.812-2.288-6.217-14.882-6.802-20.347-5.217-3.883 1.13-12.07 2.404-16.444 3.045l-.283-.27c.567-.168.581-.58.511-1.193-.04-.807-.029-1.616.035-2.421 2.68.832 5.066-1.138 5.066-1.138 3.149-1.4 2.302-7.39 2.904-9.027.451-1.225.937-8.44 1.154-12.037h.046l.024-1.207c.032-.521.046-.825.046-.825s.308-8.797.91-10.578c.56-1.638 1.014-9.888 1.084-11.197v-.171l-.045-.763a29.95 29.95 0 0 0 .041-1.827c0-2.991-.311-6.76-.349-7.368v-.319c.024-1.277-.137-7.673-5.577-10.091-2.005-.896-4.415-1.963-6.749-3.002-.601-5.196-1.976-10.364-1.857-15.599 0-.787.07-1.574.146-2.358 0 .227-.024.459-.028.7v1.525c.207-6.546 2.68-13.128 2.45-19.535a31.213 31.213 0 0 1-.127 1.886 20.335 20.335 0 0 0-.671-6.434c-.21-.739-.494-1.501-1.098-1.994a4.522 4.522 0 0 0-1.918-.76 38.547 38.547 0 0 0-5.034-.937 7.773 7.773 0 0 0-1.134-2.202C68.145 6.12 62.89 1.543 56.676.493c-.768-.13-1.565-.2-2.361-.2-2.435 0-4.864.662-6.462 2.342m5.545 146.94c.76.046 1.54.091 2.337.13l-.374.122-.252.084-.483.476a85.623 85.623 0 0 0-1.228-.811"/></defs><g fill="none" fill-rule="evenodd"><path fill="#FF5038" d="m152.31 241.5-119.442-.583L21 213.093l41.966-3.045-7.314-30.508 83.003-10.754-79.482-27.619 7.02-1.667L194 160.342l-7.039 47.61-10.06 26.164z"/><path fill="#FF5038" d="M34.325 229.406s7.324-1.173 11.719 4.01c0 0-3.223 2.542-10.156-.978l-1.563-3.032zm-.767-.115s-4.673 5.76-2.372 12.172c0 0 3.809-1.527 4.224-9.301l-1.852-2.87zm-4.199-9.468s2.93-5.382 14.648 2.151c0 0-1.563 3.619-6.738 3.325-5.176-.293-6.543-2.64-7.91-5.476m-.757-.388s-6.079-.698-6.668 13.237c0 0 3.853.8 6.591-3.608 2.738-4.407 1.615-6.88.077-9.629m-3.54-11.116s3.418-9.486 15.82-2.738c0 0-2.832 8.703-14.55 5.965l-1.27-3.227zm-3.808-14.179s6.445-9.584 17.87-.699c0 0-4.004 8.997-16.894 4.107l-.976-3.408zm-1.368-13.495s7.52-8.805 18.834 0c0 0-7.13 7.725-18.834 2.249v-2.25zm-1.171-13.108s7.617-9.192 18.456-.488c0 0-8.593 8.116-18.456 2.64v-2.152zm.683-11.637s8.022-11.832 18.164-3.813c0 0-8.594 10.17-18.164 6.062v-2.248zm1.856-13.592s8.495-11.735 18.358-2.738c0 0-10.058 10.17-18.358 4.89v-2.152zm2.832-12.15s10.058-11.03 18.833-6.636c0 0-10.48 11.714-19.273 9.562l.44-2.926zm3.515-11.518s11.607-13.51 18.359-8.997c0 0-8.552 10.477-19.182 11.525l.823-2.529zm5.074-13.36s10.16-11.028 17.582-8.29c0 0-8.692 11.44-18.945 11.734l1.363-3.443zm4.594-12.495s11.23-10.561 16.112-8.703c0 0-8.105 11.734-16.6 11.05l.488-2.347zm4.491-11.539s9.669-12.619 14.945-11.64c0 0-5.862 11.249-14.944 12.921v-1.281zm4.877-15.559s8.544-9.67 13.162-9.65c0 0-6.745 12.922-13.515 12.804l.353-3.154zm2.887-10.359 8.255-20.144s.412 18.21-9.305 23.881l1.05-3.737zm3.352-22.215s1.367-16.824.488-18.193c0 0 5.901 13.988-.544 25.625l.056-7.432zM24.741 208.096s-8.558-5.312-14.1 7.683c0 0 7.617 5.064 15.108-4.37l-1.008-3.313zm-3.763-14.498s-10.498-4.795-15.59 8.773c0 0 8.11 5.588 16.546-5.343l-.956-3.43zm-1.58-12.146s-7.52-8.805-18.833 0c0 0 7.129 7.725 18.833 2.248v-2.248z"/><g transform="translate(0 162.962)"><mask id="b" fill="#fff"><use xlink:href="#a"/></mask><path fill="#FF5038" d="M18.456 4.575S10.84-4.617 0 4.086c0 0 8.593 8.117 18.456 2.64V4.575z" mask="url(#b)"/></g><path fill="#FF5038" d="M19.398 156.236s-5.343-13.254-16.957-7.554c0 0 6.278 11.752 16.483 9.754l.474-2.2zm2.529-13.995s-5.312-13.484-17.09-7.232c0 0 7.213 12.36 16.567 9.314l.523-2.082zm3.292-12.017s-2.093-14.784-11.858-16.107c0 0 2.072 15.59 10.543 18.772l1.315-2.665zm2.63-11.557s-.816-17.811-8.89-18.433c0 0 .272 13.52 7.98 20.955l.91-2.522zm5.663-13.886s-2.406-14.811-10.114-16.62c0 0 .956 14.343 9.35 20.256l.764-3.636zm4.67-11.874s-.08-15.43-4.788-17.696c0 0-2.92 13.97 3.425 19.666l1.363-1.97zm3.938-11.836s-.66-15.887-5.535-18.126c0 0-1.667 12.573 4.806 19.167l.729-1.04zm5.197-14.116S47.289 54.032 43.808 51c0 0-3.46 14.155 1.691 18.552l1.818-2.598z"/><path fill="#FF5038" d="M49.116 54.693 45.73 33.186s-4.6 17.623 3.547 25.39l-.16-3.883zm.659-21.378s-8.69-14.459-8.513-16.065c0 0 .924 15.154 11.858 22.7l-3.345-6.635zm1.019-4.271S42.59 8.508 38.88 6.846c0 0 11.718 5.965 12.597 21.611l-.683.587z"/><path fill="#444053" d="m46.242 68.963-.561-.171c6.923-22.607 8.65-37.02 4.865-40.635l.401-.426c4.014 3.813 2.386 18.07-4.705 41.232"/><path fill="#444053" d="m27.18 121.894-.831-.296a168.59 168.59 0 0 1 2.358-6.245C35.933 97.318 42.085 80.54 46.03 67.66l.722-.35c-3.952 12.905-9.996 30.326-17.23 48.385a137.926 137.926 0 0 0-2.343 6.2"/><path fill="#444053" d="M44.645 246.324c-.112-.123-11.331-12.775-19.154-34.377a127.346 127.346 0 0 1-7.558-39.387c-.537-16.81 2.986-35.578 9.02-52.628l.655.768c-13.546 38.267-8.165 71.058-1.025 90.804 7.739 21.405 18.833 33.919 18.94 34.044l-.878.776z"/><path fill="#D5D6DB" d="M219.975 219.46s-7.907 9.664-1.63 24.273l-63.125 27.415-6.058 1.272-2.79-12.224 1.866-15.426v-8.431l71.737-16.879z"/><path fill="#FF5038" d="m20.633 213.215 87.372-15.95 115.771 18.468-71.907 25.925z"/><path fill="#FF5038" d="m20.633 213.215 87.372-15.95 115.771 18.468-71.907 25.925z"/><path fill="#FF5038" d="M20.633 213.212s-8.172 15.503 1.245 29.822l129.565 28.115s-8.042-12.35.415-29.491L20.633 213.212z"/><path fill="#65617D" d="M20.633 213.212s-8.172 15.503 1.245 29.822l129.565 28.115s-8.042-12.35.415-29.491L20.633 213.212z"/><path fill="#000" d="M24.494 218.587s-4.67 11.343 0 18.685"/><path fill="#FF5038" d="m151.443 271.148 72.333-30.908s4.046.873 1.43 3.842c-2.616 2.968-72.368 30.035-72.368 30.035l-130.96-31.083 129.565 28.114z"/><path fill="#000" d="m151.443 271.148 72.333-30.908s4.046.873 1.43 3.842c-2.616 2.968-72.368 30.035-72.368 30.035l-130.96-31.083 129.565 28.114zm-5.929-26.368s-6.975 8.382 0 20.955"/><path fill="#000" d="m147.997 255.091 31.287-10.453.11.332-31.287 10.452zm-.01 2.811 37.563-14.304.124.327-37.564 14.304zm.209 3.316 43.11-17.67.132.323-43.11 17.67zm.504 2.921 48.864-22.104.144.318-48.865 22.104zm.386 1.424 53.735-23.52.14.32-53.735 23.52zm.811 2.388 64.425-27.865.138.321-64.425 27.865z"/><path fill="#FFF" d="m53.092 214.92 61.382-12.922 37.394 7.16-50.298 16.24z"/><path fill="#FF5038" d="M223.776 215.733s3.174 1.282 1.312 3.263c-1.863 1.98-73.23 22.662-73.23 22.662l71.918-25.925z"/><path fill="#D5D6DB" d="M254.603 185.87s-7.902 9.66-1.625 24.272l-63.126 27.416-6.058 1.278-2.79-12.224 1.894-15.422v-8.442l71.705-16.879z"/><path fill="#3A3768" d="m55.265 179.621 87.368-15.946 115.775 18.468-71.907 25.924zm-.015 0s-8.174 15.503 1.242 29.823l129.566 28.114s-8.04-12.36.429-29.494L55.25 179.62z"/><path fill="#65617D" d="M55.25 179.621s-8.174 15.503 1.242 29.823l129.566 28.114s-8.04-12.36.429-29.494l-40.973-8.881-90.263-19.562z"/><path fill="#000" d="M59.122 184.996s-4.666 11.34 0 18.685"/><path fill="#3A3768" d="m186.071 237.558 72.337-30.909s4.043.874 1.427 3.842c-2.616 2.969-72.368 30.035-72.368 30.035l-130.96-31.083 129.564 28.115z"/><path fill="#000" d="m186.071 237.558 72.337-30.909s4.043.874 1.427 3.842c-2.616 2.969-72.368 30.035-72.368 30.035l-130.96-31.083 129.564 28.115zm-5.929-26.368s-6.975 8.382 0 20.954"/><path fill="#000" d="m182.628 221.504 31.287-10.452.11.331-31.287 10.452zm-.006 2.81 37.564-14.304.124.326-37.564 14.305zm.205 3.311 43.109-17.67.132.323-43.109 17.67zm.507 2.922 48.864-22.105.144.319-48.865 22.104zm.382 1.418 53.735-23.52.14.32-53.736 23.52zm.813 2.389 64.426-27.864.138.32-64.426 27.865z"/><path fill="#FFF" d="m87.724 181.33 61.382-12.923 37.394 7.16-50.298 16.24z"/><path fill="#3A3768" d="M258.408 182.143s3.17 1.282 1.312 3.258c-1.859 1.977-73.22 22.663-73.22 22.663l71.908-25.921z"/><path fill="#D5D6DB" d="M257.882 147.442s-7.907 17.347-1.63 31.956l-63.125 19.732-6.044 1.282-2.79-12.223 1.866-15.427v-8.441l71.723-16.879z"/><path fill="#FF5038" d="m58.554 141.197 87.372-15.95L261.7 143.715l-71.912 25.925z"/><path fill="#FF5038" d="M58.554 141.194s-8.186 15.503 1.23 29.822l129.566 28.115s-8.042-12.36.425-29.491L58.554 141.194z"/><path fill="#65617D" d="M58.554 141.194s-8.186 15.503 1.23 29.822l129.566 28.115s-8.042-12.36.425-29.491L58.554 141.194z"/><path fill="#000" d="M62.414 146.569s-4.67 11.343 0 18.685"/><path fill="#FF5038" d="m189.364 199.13 72.333-23.224s4.046.873 1.43 3.841c-2.616 2.969-72.368 22.352-72.368 22.352l-130.96-31.083 129.565 28.114z"/><path fill="#000" d="m189.364 199.13 72.333-23.224s4.046.873 1.43 3.841c-2.616 2.969-72.368 22.352-72.368 22.352l-130.96-31.083 129.565 28.114zm-5.929-26.368s-6.975 8.382 0 20.955"/><path fill="#000" d="m185.921 183.076 31.287-10.453.11.332-31.287 10.452zm-.008 2.811 37.564-14.304.124.327-37.564 14.304zm.202 3.313 43.109-17.67.132.323-43.11 17.67zm.512 2.919 48.864-22.104.144.318-48.865 22.104zm.383 1.421 53.736-23.52.14.32-53.736 23.521zm.812 2.392 64.426-27.865.138.321-64.426 27.865z"/><path fill="#FFF" d="m91.013 142.902 61.382-12.923 37.394 7.16-50.298 16.24z"/><path fill="#FF5038" d="M261.697 143.715s3.174 1.282 1.312 3.263c-1.863 1.98-73.22 22.662-73.22 22.662l71.908-25.925zM108.263 37.698s-13.253-.8-11.705 8.511c0 0-.31 1.645 1.18 2.393 0 0 .023-.699 1.36-.458.476.082.96.106 1.443.07a3.01 3.01 0 0 0 1.761-.726s3.729-1.544 5.18-7.649c0 0 1.074-1.33 1.046-1.673l-2.246.957s.764 1.617.164 2.962c0 0-.074-2.903-.506-2.836-.087 0-1.161.562-1.161.562s1.314 2.819.32 4.865c0 0 .377-3.471-.732-4.662l-1.576.922s1.538 2.909.495 5.284c0 0 .268-3.643-.827-5.06l-1.43 1.117s1.448 2.867.565 4.837c0 0-.115-4.24-.872-4.561 0 0-1.252 1.103-1.44 1.557 0 0 .99 2.096.373 3.182 0 0-.373-2.825-.697-2.84 0 0-1.245 1.873-1.374 3.144a6.8 6.8 0 0 1 1.07-3.332c-.717.136-1.38.48-1.904.988 0 0 .192-1.323 2.215-1.439 0 0 1.029-1.421 1.304-1.505 0 0-2.012-.17-3.23.37 0 0 1.075-1.246 3.596-.698l1.395-1.153s-2.643-.349-3.766.039c0 0 1.294-1.104 4.146-.3l1.539-.919s-2.257-.485-3.6-.31c0 0 1.416-.766 4.05.062l1.095-.492s-1.65-.325-2.135-.378c-.485-.052-.51-.185-.51-.185a5.75 5.75 0 0 1 3.105.35s2.354-.85 2.309-.996M294.71 75.969s-13.252-.8-11.704 8.51c0 0-.31 1.646 1.18 2.393 0 0 .024-.698 1.36-.457.476.08.961.103 1.443.07a2.993 2.993 0 0 0 1.744-.727s3.732-1.544 5.18-7.649c0 0 1.073-1.33 1.046-1.672l-2.24.957s.764 1.617.165 2.961c0 0-.074-2.902-.503-2.836-.087 0-1.165.563-1.165.563s1.315 2.818.325 4.865c0 0 .376-3.472-.736-4.663l-1.577.922s1.538 2.91.495 5.284c0 0 .27-3.642-.826-5.06l-1.427 1.117s1.445 2.868.562 4.837c0 0-.115-4.24-.872-4.56 0 0-1.248 1.103-1.44 1.557 0 0 .99 2.095.377 3.181 0 0-.377-2.825-.698-2.839 0 0-1.245 1.872-1.374 3.143a6.784 6.784 0 0 1 1.074-3.332 3.749 3.749 0 0 0-1.907.989s.194-1.324 2.214-1.44c0 0 1.029-1.42 1.305-1.508 0 0-2.01-.167-3.23.374 0 0 1.074-1.247 3.595-.699l1.395-1.152s-2.646-.35-3.766.038c0 0 1.29-1.103 4.147-.3l1.534-.919s-2.256-.485-3.6-.31c0 0 1.417-.765 4.05.062l1.099-.492s-1.653-.325-2.138-.377c-.485-.053-.51-.185-.51-.185a5.712 5.712 0 0 1 3.105.349s2.36-.849 2.319-.995M130.583 95.22s-5.775-11.99-13.127-6.081c0 0-1.587.53-1.51 2.196 0 0 .61-.317 1.046.968.163.454.379.888.642 1.292.357.548.882.965 1.496 1.188 0 0 3.163 2.507 9.193.796 0 0 1.685.29 1.96.087l-1.925-1.491s-1.046 1.456-2.504 1.585c0 0 2.497-1.477 2.229-1.82-.056-.069-1.046-.743-1.046-.743s-1.817 2.525-4.084 2.654c0 0 3.208-1.362 3.703-2.916l-1.569-.929s-1.79 2.766-4.367 3.01c0 0 3.307-1.54 4.008-3.188l-1.667-.699s-1.796 2.662-3.945 2.854c0 0 3.641-2.17 3.55-2.99 0 0-1.572-.552-2.06-.5 0 0-1.333 1.883-2.588 1.883 0 0 2.277-1.708 2.137-1.983 0 0-2.239-.175-3.417.349a6.783 6.783 0 0 1 3.428-.699 3.756 3.756 0 0 0-1.793-1.184s1.249-.475 2.334 1.233c0 0 1.743.206 1.95.405 0 0-.834-1.837-1.898-2.637 0 0 1.611.325 2.347 2.794l1.692.671s-.974-2.487-1.87-3.272c0 0 1.59.59 2.285 3.492l1.548.894s-.673-2.21-1.482-3.297c0 0 1.356.866 1.918 3.57l.966.719s-.523-1.603-.697-2.05c-.175-.447-.088-.538-.088-.538a5.737 5.737 0 0 1 1.214 2.881s1.866 1.6 1.991 1.495M264.432 59.03s-5.773-11.99-13.128-6.08c0 0-1.583.53-1.51 2.197 0 0 .614-.315 1.046.967.163.456.38.891.645 1.296.356.547.88.962 1.493 1.184 0 0 3.167 2.507 9.194.8 0 0 1.684.286 1.963.083l-1.915-1.495s-1.046 1.46-2.5 1.59c0 0 2.493-1.481 2.225-1.824-.056-.07-1.046-.743-1.046-.743s-1.814 2.525-4.084 2.654c0 0 3.212-1.362 3.707-2.913l-1.594-.922s-1.786 2.763-4.366 3.01c0 0 3.306-1.543 4.01-3.192l-1.67-.698s-1.796 2.665-3.942 2.853c0 0 3.638-2.168 3.548-2.986 0 0-1.57-.555-2.058-.5 0 0-1.332 1.88-2.591 1.88 0 0 2.28-1.708 2.141-1.984 0 0-2.239-.175-3.421.35a6.778 6.778 0 0 1 3.428-.7 3.732 3.732 0 0 0-1.79-1.183s1.25-.475 2.334 1.233c0 0 1.744.21 1.95.408 0 0-.834-1.84-1.901-2.64 0 0 1.611.328 2.347 2.811l1.695.671s-.973-2.49-1.87-3.276c0 0 1.591.59 2.282 3.493l1.552.894s-.677-2.208-1.486-3.297c0 0 1.36.866 1.918 3.569l.966.72s-.52-1.604-.697-2.05c-.178-.448-.088-.535-.088-.535a5.748 5.748 0 0 1 1.21 2.881s1.894 1.586 2.003 1.474m18.445 59.306s-5.772-11.993-13.137-6.084c0 0-1.584.53-1.51 2.197 0 0 .613-.315 1.046.967.161.456.377.89.641 1.296.356.547.88.962 1.493 1.184 0 0 3.167 2.51 9.197.8 0 0 1.681.29 1.96.083l-1.925-1.491s-1.046 1.46-2.504 1.589c0 0 2.494-1.48 2.225-1.823-.056-.07-1.046-.744-1.046-.744s-1.814 2.525-4.084 2.658c0 0 3.212-1.366 3.707-2.916l-1.573-.93s-1.786 2.767-4.367 3.011c0 0 3.307-1.544 4.011-3.192l-1.67-.698s-1.796 2.66-3.941 2.853c0 0 3.64-2.169 3.55-2.99 0 0-1.573-.555-2.061-.5 0 0-1.332 1.88-2.591 1.88 0 0 2.28-1.708 2.14-1.984 0 0-2.238-.174-3.42.35a6.798 6.798 0 0 1 3.432-.7 3.727 3.727 0 0 0-1.793-1.183s1.248-.479 2.333 1.233c0 0 1.744.206 1.95.405 0 0-.834-1.837-1.898-2.64 0 0 1.612.328 2.347 2.811l1.692.67s-.973-2.49-1.87-3.272c0 0 1.591.587 2.282 3.493l1.551.89s-.676-2.207-1.485-3.297c0 0 1.36.866 1.921 3.573l.967.699s-.524-1.603-.698-2.05c-.174-.448-.087-.535-.087-.535a5.708 5.708 0 0 1 1.21 2.881s1.897 1.61 2.005 1.506M70.433 272.573c4.428 0 8.018.402 8.018.898s-3.59.898-8.018.898c-4.429 0-8.018-.402-8.018-.898s3.59-.898 8.018-.898M17.87 257.318c4.429 0 8.019.402 8.019.898 0 .495-3.59.898-8.018.898-4.429 0-8.018-.403-8.018-.898 0-.496 3.59-.898 8.018-.898"/><g transform="translate(102.187 282.405)"><mask id="d" fill="#fff"><use xlink:href="#c"/></mask><path fill="#FF5038" d="M8.311.3c4.428 0 8.018.402 8.018.898s-3.59.898-8.018.898c-4.428 0-8.018-.402-8.018-.898S3.883.3 8.311.3" mask="url(#d)"/></g><path fill="#FF5038" d="M315.815 260.636c4.428 0 8.017.402 8.017.898 0 .495-3.59.897-8.017.897-4.429 0-8.018-.402-8.018-.897 0-.496 3.59-.898 8.018-.898m-66.722-4.356c4.428 0 8.018.403 8.018.899 0 .495-3.59.897-8.018.897-4.428 0-8.018-.402-8.018-.897 0-.496 3.59-.898 8.018-.898m-43.163 19.774c5.237 0 9.483.73 9.483 1.631s-4.246 1.631-9.483 1.631-9.483-.73-9.483-1.63c0-.901 4.246-1.632 9.483-1.632"/><path fill="#FF5038" d="M210.16 261.292s-13.203 6.832-6.382 14.879c0 0 .642 1.746 2.497 1.623 0 0-.37-.677 1.047-1.218.504-.195.982-.45 1.426-.758a3.355 3.355 0 0 0 1.276-1.708s2.7-3.618.608-10.313c0 0 .271-1.893.034-2.2l-1.604 2.203s1.657 1.114 1.848 2.752c0 0-1.743-2.748-2.092-2.444-.077.062-.795 1.205-.795 1.205s2.873 1.952 3.086 4.487c0 0-1.618-3.552-3.365-4.058l-1.001 1.788s3.138 1.914 3.487 4.792c0 0-1.824-3.65-3.686-4.387l-.736 1.89s3.027 1.927 3.306 4.324c0 0-2.532-4.007-3.442-3.88 0 0-.572 1.773-.495 2.322 0 0 2.138 1.432 2.176 2.839 0 0-1.974-2.497-2.277-2.333 0 0-.126 2.511.48 3.817 0 0-1.045-1.864-.875-3.817a4.192 4.192 0 0 0-1.266 2.04s-.568-1.38 1.305-2.651c0 0 .178-1.952.394-2.193 0 0-2.026.991-2.888 2.207 0 0 .318-1.813 3.066-2.714l.697-1.914s-2.748 1.167-3.595 2.194c0 0 .61-1.799 3.812-2.662l.948-1.746s-2.441.824-3.634 1.746c0 0 .924-1.547 3.927-2.26l.77-1.1s-1.77.633-2.266.86c-.495.227-.593.115-.593.115a6.413 6.413 0 0 1 3.177-1.446s1.748-2.162 1.625-2.28"/><g transform="translate(131 .5)"><mask id="f" fill="#fff"><use xlink:href="#e"/></mask><path d="M47.853 2.635c-.221.196-.43.406-.623.63-1.14 1.361-1.63 3.149-2.799 4.506-.076.091-.164.175-.248.263-2.288 2.047-5.853 2.474-8.396 4.31-.449.33-.868.696-1.256 1.096a21.261 21.261 0 0 0-2.743 3.334c-1.144 1.61-2.32 3.286-2.684 5.207-.73 3.849 1.89 7.498 2.376 11.372 1.084 8.667-8.505 16.357-6.69 24.909a11.408 11.408 0 0 0 3.086 5.539 166.396 166.396 0 0 0-6.923 6.673v.195h-.591l.059.7h-.06l.326 3.797-.325 5.528v.521h.02c.109 2.026.54 9.311 1.05 10.847.602 1.781.906 10.578.906 10.578s.665 12.432 1.274 14.076c.608 1.645-.256 7.618 2.903 9.028a6.648 6.648 0 0 0 3.173 1.315c-.16 1.309-.059 2.257.462 2.555.224.13.477.203.735.21a7.784 7.784 0 0 0-.57.997 14.812 14.812 0 0 1-3.667-.864c-3.393-1.4-14.655-4.55-17.926-2.334-3.271 2.215-11.143 4.223-7.508 13.139 3.635 8.915 5.329 9.139 5.329 9.139 1.118.812 2.1 1.799 2.907 2.922 1.091 1.64 11.262 5.395 13.805 5.395a25.061 25.061 0 0 1 3.236.16s-2.76 2.422-2.393 3.829-.84 12.666-.84 12.666 2.8 2.82 3.996-.878l.042.056c.224.304 1.434 1.68 3.712-.056a20.817 20.817 0 0 1 2.96-1.875l11.027-1.561c1.15-.072 2.302-.08 3.453-.024 1.749.143 3.467-.893 4.548-1.694 2.284.867 4.852 1.816 6.073 2.162 2.477.7 13.862 3.755 16.524 2.8a3.695 3.695 0 0 0 1.434-1.022l2.54.08-1.19.238s2.317.039 5.466.08l-.133.078 3.95-.035c5.78.052 12.272.07 13.126-.123 1.336-.297 8.281-.087 10.327 0h.57s7.631-1.522 4.483-9.265c-2.421-5.948-9.863-7.677-13.165-8.153.93-.185 1.731-.329 2.263-.413 2.306-.35 6.784-2.449 7.147-3.166.365-.718 4.118-2.8 5.088-3.986.969-1.186 3.736-9.594 1.437-15.812-2.288-6.217-14.882-6.802-20.347-5.217-3.883 1.13-12.07 2.404-16.444 3.045l-.283-.27c.567-.168.581-.58.511-1.193-.04-.807-.029-1.616.035-2.421 2.68.832 5.066-1.138 5.066-1.138 3.149-1.4 2.302-7.39 2.904-9.027.451-1.225.937-8.44 1.154-12.037h.046l.024-1.207c.032-.521.046-.825.046-.825s.308-8.797.91-10.578c.56-1.638 1.014-9.888 1.084-11.197v-.171l-.045-.763a29.95 29.95 0 0 0 .041-1.827c0-2.991-.311-6.76-.349-7.368v-.319c.024-1.277-.137-7.673-5.577-10.091-2.005-.896-4.415-1.963-6.749-3.002-.601-5.196-1.976-10.364-1.857-15.599 0-.787.07-1.574.146-2.358 0 .227-.024.459-.028.7v1.525c.207-6.546 2.68-13.128 2.45-19.535a31.213 31.213 0 0 1-.127 1.886 20.335 20.335 0 0 0-.671-6.434c-.21-.739-.494-1.501-1.098-1.994a4.522 4.522 0 0 0-1.918-.76 38.547 38.547 0 0 0-5.034-.937 7.773 7.773 0 0 0-1.134-2.202C68.145 6.12 62.89 1.543 56.676.493c-.768-.13-1.565-.2-2.361-.2-2.435 0-4.864.662-6.462 2.342m5.545 146.94c.76.046 1.54.091 2.337.13l-.374.122-.252.084-.483.476a85.623 85.623 0 0 0-1.228-.811" mask="url(#f)"/></g><path fill="#EE8E9E" d="M208.71 112.383s5.34 14.005 8.376 12.605c3.036-1.4 2.213-7.353 2.792-8.985.58-1.631 1.221-14.005 1.221-14.005s.293-8.753.873-10.524c.537-1.628.973-9.839 1.047-11.13v-.172l-.576-10.154-3.26-.816-7.558 2.801-1.047 5.998-.409 2.342-.174.998-1.284 31.042z"/><path fill="#000" d="M210.47 110.037s5.095 4.184 6.63 4.552c1.535.367 2.478 3.63 2.478 3.63"/><path fill="#EE8E9E" d="M166.956 112.996S161.616 127 158.58 125.6c-3.037-1.4-2.213-7.352-2.792-8.984-.58-1.631-1.222-14.005-1.222-14.005s-.293-8.753-.872-10.524c-.537-1.629-.974-9.839-1.047-11.13v-.172l.58-10.154 3.259-.816 7.558 2.801 1.047 5.998.409 2.342.174.998 1.28 31.042z"/><path fill="#3E373A" d="M189.807 56.686h11.917V38.049h-11.917z"/><path fill="#000" d="M189.807 56.686h11.917V38.049h-11.917z"/><path fill="#4B4B5B" d="M164.862 126.945s-4.072 4.492-2.561 5.308c1.51.815 11.285 16.105 11.285 16.105s32.106 3.967 38.16-1.985c6.055-5.952 5.933-16.585 5.933-16.585s-4.864 1.05-5.395.48c-.53-.571-3.444-3.323-3.444-3.323s-41.186-2.507-43.978 0"/><path fill="#000" d="M164.862 126.945s-4.072 4.492-2.561 5.308c1.51.815 11.285 16.105 11.285 16.105s32.106 3.967 38.16-1.985c6.055-5.952 5.933-16.585 5.933-16.585s-4.864 1.05-5.395.48c-.53-.571-3.444-3.323-3.444-3.323s-41.186-2.507-43.978 0"/><path fill="#EE8E9E" d="m222.66 70.165-10.47 8.403-3.165.231-1.162.084-19.518 1.436-20.24-1.485-3.013-.22-3.838-.28-8.027-7.703s5.682-6.106 10.658-10.227c1.961-1.628 3.814-2.945 5.165-3.463l.23-.08a5.743 5.743 0 0 0 2.213-1.548c3.93-4.065 7.562-14.096 7.562-14.096s17.333-8.984 15.24 2.801c-2.094 11.785 7.792 8.872 7.792 8.872l3.26 1.492 1.287.591 3.284 1.51 7.409 3.41c5.814 2.685 5.332 10.272 5.332 10.272"/><path fill="#000" d="M187.531 19.534c8.61 0 15.59 7.003 15.59 15.64 0 8.638-6.98 15.64-15.59 15.64s-15.588-7.002-15.588-15.64c0-8.637 6.979-15.64 15.588-15.64m35.153 61.772h-70.036v-.171l.58-10.154s5.68-6.106 10.657-10.227l43.97-1.75 2.045-2.164 7.41 3.41c5.817 2.682 5.35 10.269 5.35 10.269s.795 8.791.024 10.787"/><path fill="#E7C7CA" d="M222.684 80.956h-70.036v-.172l.58-10.153s5.68-6.106 10.657-10.227l43.97-1.75 2.045-2.165 7.41 3.41c5.817 2.683 5.35 10.27 5.35 10.27s.795 8.791.024 10.787"/><path fill="#000" d="M176.305 52.484s11.048 14.124 25.765-.29c14.716-14.415 1.63 32.151 1.63 32.151l-31.757 3.782 4.362-35.643z"/><path fill="#E7C7CA" d="M176.305 53.184s11.048 14.124 25.765-.29c14.716-14.415 1.63 32.152 1.63 32.152l-31.757 3.78 4.362-35.642z"/><path fill="#000" d="m206.617 55.663 1.169 17.888 1.252 5.952.957 4.552s2.443 35.012 1.745 36.763c-.698 1.75.349 3.15.495 4.082.147.931-.146 3.27-.031 4.32.115 1.05 0 1.517-2.673 1.142-2.674-.375-6.4-1.026-6.4-1.026s-9.423.7-12.679-.466c-3.255-1.165-9.422-1.169-9.422-1.169s-9.307.235-12.33-.116c-3.022-.35-4.654 3.736-6.63 2.567-1.975-1.17 2.325-12.486 3.72-15.756 1.396-3.27-1.86-11.554-1.86-11.554l4.188-23.307.932-5.284v-16.61l.23-.08a5.743 5.743 0 0 0 2.213-1.548l1.047 16.715 32.803 1.17V55.086"/><path fill="#E7C7CA" d="m206.617 54.963 1.169 17.888 1.252 5.952.957 4.551s2.443 35.013 1.745 36.763c-.698 1.751.349 3.151.495 4.083.147.931-.146 3.27-.031 4.32.115 1.05 0 1.516-2.673 1.142-2.674-.375-6.4-1.026-6.4-1.026s-9.423.7-12.679-.466c-3.255-1.166-9.422-1.17-9.422-1.17s-9.307.235-12.33-.115c-3.022-.35-4.654 3.736-6.63 2.567-1.975-1.17 2.325-12.486 3.72-15.756 1.396-3.27-1.86-11.554-1.86-11.554l4.188-23.308.932-5.283v-16.61l.23-.08a5.743 5.743 0 0 0 2.213-1.548l1.047 16.715 32.803 1.17V54.384"/><path fill="#000" d="M210.39 17.633c-.2-.732-.475-1.492-1.048-1.982a4.276 4.276 0 0 0-1.842-.756 36.274 36.274 0 0 0-4.844-.931 7.788 7.788 0 0 0-1.047-2.182c-3.42-4.845-8.48-9.414-14.434-10.447-3.116-.543-6.728-.056-8.724 2.408-1.096 1.355-1.567 3.152-2.673 4.482-2.132 2.584-5.981 2.903-8.669 4.902-1.434 1.05-2.474 2.573-3.49 4.05-1.099 1.6-2.23 3.267-2.578 5.179-.698 3.82 1.818 7.461 2.282 11.316 1.047 8.624-8.166 16.274-6.425 24.782 1.016 4.96 5.584 8.455 10.31 10.227 1.664.626 3.566 1.25 4.344 2.853.349.7.408 1.51.736 2.217 1.103 2.36 4.729 2.45 6.676.731 1.947-1.719 2.562-4.499 2.792-7.093.935-11.33-3.588-22.524-3.06-33.882.156-3.434 1.12-7.331 4.187-8.886 4.128-2.1 9.094 1.4 13.638.732a27.23 27.23 0 0 1 1.305 16.564c-.722 3.022-1.972 5.952-2.062 9.069-.136 4.744 2.415 9.078 4.62 13.273a7.07 7.07 0 0 1 .932 2.56 6.184 6.184 0 0 1-.5 2.678c-1.245 3.364-3.395 6.487-3.639 10.07-.072.417.022.847.262 1.197.246.233.563.376.9.406 3.77.647 7.028-2.703 8.868-6.068a28.51 28.51 0 0 0 3.496-12.086c.38-7.129-2.167-14.142-2.01-21.277.182-8.113 3.835-16.28 1.696-24.106"/><path fill="#603556" d="M210.738 17.283c-.199-.732-.474-1.492-1.047-1.982a4.276 4.276 0 0 0-1.842-.756 36.274 36.274 0 0 0-4.844-.932 7.788 7.788 0 0 0-1.047-2.18c-3.42-4.847-8.48-9.416-14.434-10.448-3.116-.543-6.728-.056-8.724 2.408-1.096 1.355-1.567 3.151-2.673 4.482-2.132 2.584-5.981 2.902-8.669 4.902-1.434 1.05-2.474 2.573-3.49 4.05-1.099 1.6-2.23 3.267-2.578 5.179-.698 3.82 1.818 7.461 2.282 11.316 1.047 8.623-8.166 16.274-6.425 24.782 1.016 4.96 5.584 8.455 10.31 10.227 1.664.626 3.566 1.25 4.344 2.853.349.7.408 1.51.736 2.216 1.103 2.36 4.729 2.451 6.676.732s2.562-4.499 2.792-7.093c.935-11.33-3.588-22.524-3.06-33.882.156-3.434 1.12-7.331 4.187-8.886 4.128-2.1 9.094 1.4 13.638.732a27.23 27.23 0 0 1 1.305 16.564c-.722 3.022-1.972 5.952-2.062 9.068-.136 4.745 2.415 9.08 4.62 13.274a7.07 7.07 0 0 1 .932 2.559 6.184 6.184 0 0 1-.5 2.678c-1.245 3.365-3.395 6.488-3.639 10.07-.072.418.022.848.262 1.197.246.234.563.377.9.407 3.77.647 7.028-2.703 8.868-6.068a28.51 28.51 0 0 0 3.496-12.086c.38-7.129-2.167-14.142-2.01-21.277.182-8.113 3.835-16.281 1.696-24.106"/><path fill="#C3C7D9" d="m203.03 172.307 13.843.444-1.986-10.3-10.605 1.011z"/><path fill="#4B4B5B" d="M245.925 147.893c-.932 1.165-4.536 3.266-4.885 3.966-.35.7-4.652 2.801-6.865 3.152-2.212.35-9.188 1.87-10.469 2.685-.918.588-8.285 2.45-13.125 3.484-1.311.311-2.638.55-3.975.717-2.094.116-25.007-7.702-25.007-7.702l4.418-4.552.244-.084c1.25-.423 7.022-2.38 10.225-3.312 3.608-1.05 7.796-5.367 7.796-5.367s6.163-2.101 6.98-2.336c.816-.234-2.094-8.168-2.094-8.168s13.376-1.863 18.61-3.442c5.235-1.579 17.334-.994 19.543 5.193 2.21 6.186-.45 14.6-1.396 15.766"/><path fill="#E7C7CA" d="M184.97 167.615s-2.673 2.801-5.35 2.57c-2.676-.231-12.036.7-12.036.7a18.736 18.736 0 0 0-4.715 2.742c-2.188 1.73-3.35.35-3.566.056l-.038-.056c-1.166 3.68-3.84.875-3.84.875s1.163-11.204.807-12.604c-.356-1.401 2.3-3.806 2.3-3.806l3.14-.802 7.957-2.045 11.401 3.967 3.94 8.403z"/><path fill="#000" d="m161.659 157.29-2.356 16.393-.038-.056c-1.166 3.68-3.84.875-3.84.875s1.163-11.204.807-12.605c-.356-1.4 2.3-3.805 2.3-3.805l3.127-.802zm16.464-46.63s6.163 2.101 11.516 0m9.524 3.97s2.558 1.282 4.536 0m-4.536 3.04s4.303.578 5.12-.588m-6.516 7.118s8.082-1.05 10.089-2.451m-34.751 0s4.537 2.566 7.911 2.45m29.562 36.981c-1.311.311-2.638.55-3.975.718-2.094.115-25.008-7.703-25.008-7.703l4.418-4.552.245-.084c.698.494 1.27.918 1.678 1.24 1.923 1.519 3.78-.466 4.478-.466.697 0 6.745 5.017 6.745 5.017s5.584 1.285 6.516 2.451c.931 1.166 4.187.935 4.767 1.75.174.252.195.873.136 1.629"/><path fill="#4B4B5B" d="M167.584 130.852s-5.646.326-8.902-1.05c-3.256-1.376-14.074-4.552-17.215-2.322-3.14 2.23-10.703 4.202-7.213 13.074 3.49 8.872 5.12 9.103 5.12 9.103a12.623 12.623 0 0 1 2.79 2.906c1.048 1.635 10.82 5.368 13.262 5.368 2.443 0 6.746 0 12.793 4.201 6.048 4.202 11.516 4.67 11.516 4.67s7.678 3.152 10.068 3.852c2.39.7 13.314 3.732 15.875 2.801 2.562-.931 4.188-6.771 4.188-6.771s1.162-5.252.58-6.068c-.584-.816-3.84-.585-4.768-1.75-.928-1.166-6.515-2.451-6.515-2.451s-6.034-5.021-6.732-5.021c-.698 0-2.555 1.982-4.477.465a102.108 102.108 0 0 0-12.043-7.702c-4.418-2.336-8.327-13.305-8.327-13.305"/><path fill="#000" d="M156.232 134.238a6.65 6.65 0 0 1 5.72 1.516c2.791 2.335 12.186 7.023 12.186 7.023m51.896-8.687s-12.448 1.891-14.772 4.458"/><path fill="#E7C7CA" d="M240.342 172.751h-.548c-1.968-.07-8.637-.28-9.922 0-1.51.35-21.52 0-21.52 0l3.911-.815s-1.452-5.105-.53-5.529c0 0-5.234-3.46-1.288-5.794 3.947-2.336 8.2-1.352 8.2-1.352l9.908-3.368 1.902-.648s11.167.585 14.19 8.288c3.022 7.702-4.303 9.218-4.303 9.218"/><path fill="#000" d="M240.342 172.751h-.548c3.249-2.689 10.598-10.875-11.24-16.84l1.901-.648s11.167.584 14.19 8.287c3.022 7.703-4.303 9.201-4.303 9.201"/><path fill="#4B4B5B" d="M219.811 162.45c.338 0 .611.275.611.613a.611.611 0 1 1-.61-.612m-3.55 1.011a.612.612 0 1 1-.002 1.224.612.612 0 0 1 .002-1.224"/><path fill="#000" d="M198.97 34.596a27.245 27.245 0 0 0-2.002-11.253c-4.537.68-9.506-2.832-13.638-.731-3.057 1.554-4.017 5.451-4.188 8.886a41.603 41.603 0 0 0-.031 2.72c0-.322 0-.647.031-.97.16-3.434 1.12-7.331 4.188-8.886 4.132-2.1 9.094 1.4 13.638.732a27.173 27.173 0 0 1 2.003 9.502m-35.156-.64c.06-.763.045-1.53-.045-2.29-.37-3.081-2.049-6.026-2.352-9.03-.391 3.624 1.909 7.104 2.352 10.78.045.19.045.358.045.54m18.388 31.42c-.217 2.597-.827 5.374-2.792 7.097-1.965 1.722-5.584 1.628-6.676-.732-.349-.7-.401-1.516-.74-2.216-.774-1.604-2.68-2.227-4.344-2.854-4.729-1.775-9.29-5.252-10.306-10.227a10.99 10.99 0 0 1-.185-1.366 11.064 11.064 0 0 0 .185 3.117c1.016 4.96 5.584 8.451 10.306 10.227 1.664.626 3.57 1.25 4.344 2.853.35.7.408 1.51.74 2.216 1.1 2.36 4.725 2.451 6.676.732 1.95-1.719 2.558-4.499 2.792-7.097.106-1.367.142-2.74.108-4.11 0 .794-.045 1.579-.108 2.36m26.954-25.647v1.516c.196-6.512 2.576-13.06 2.342-19.435-.182 5.896-2.209 11.925-2.342 17.919m-7.489 26.343c.086-.415.113-.84.08-1.264a7.024 7.024 0 0 0-.93-2.559c-2.018-3.851-4.318-7.794-4.59-12.069 0 .182-.025.35-.028.547-.14 4.74 2.411 9.078 4.617 13.273a8.4 8.4 0 0 1 .851 2.072m9.496-5.066a28.552 28.552 0 0 1-3.521 12.086c-1.843 3.365-5.099 6.716-8.871 6.068a1.479 1.479 0 0 1-.9-.41.877.877 0 0 1-.165-.273c-.042.273-.076.55-.097.83-.073.417.022.846.261 1.194.245.236.563.38.9.41 3.773.647 7.03-2.703 8.872-6.068a28.552 28.552 0 0 0 3.52-12.086c.043-.82.047-1.635.022-2.451-.007.234-.007.465-.021.7"/><path stroke="#000" d="M211.733 166.407s8.832 3.718 14.657-4.51m-12.92 11.008s7.214-4.705 16.402-.154m-64.685-.914s3.029-6.855 11.118-1.627"/><path fill="#000" d="m155.367 70.456 6.176-5.602s23.95-1.576 24.942 6.593c0 0 8.49-9.685 26.347-7.528l7.555 6.036-20.882 9.194-20.293 7.062-14.947-6.711-8.898-9.044z"/><path fill="#D5D6DB" d="m155.367 70.806 6.176-5.602s23.95-1.575 24.942 6.593c0 0 8.49-9.684 26.347-7.528l7.555 6.036-20.882 9.195-20.293 7.062-14.947-6.712-8.898-9.044z"/><path fill="#000" d="m152.634 71.506 2.733 32.796 28.964 1.46-1.256-32.656-.024-.55z"/><path fill="#FF5038" d="m152.634 70.806 2.733 32.796 28.964 1.46-1.256-32.656-.024-.55z"/><path fill="#000" d="m221.713 70.806-29.879 4.496v32.943l29.199-4.233z"/><path fill="#FF5038" d="M221.713 70.106 191.834 74.6v32.943l29.199-4.233z"/><path fill="#FFF" d="m214.667 78.145-16.14 1.8.353 5.517 15.777-1.73z"/><path fill="#EE8E9E" d="m156.937 121.164 1.644 4.436s2.442 2.101 5.116 1.05c2.673-1.05 5.004-1.571 6.166-2.594 1.162-1.022 2.792-6.158 2.792-6.158s1.63-5.602 3.256-7.003c1.626-1.4 5.932-20.696 0-18.808-5.933 1.887-10.47 19.393-10.47 19.393s-1.047 1.281-2.558 1.4c-1.51.12-4.536-.234-5.119 1.05-.583 1.286-2.572 4.668-.827 7.234"/><path fill="#000" d="M191.834 75.298a10.027 10.027 0 0 1-8.762-2.192l1.26 32.653s2.966 3.221 7.502 2.486V75.298z"/><path fill="#FF5038" d="M191.834 74.598a10.027 10.027 0 0 1-8.762-2.192l1.26 32.653s2.966 3.22 7.502 2.485V74.598z"/><path fill="#672E27" d="M191.834 74.598a10.027 10.027 0 0 1-8.762-2.192l1.26 32.653s2.966 3.22 7.502 2.485V74.598z"/><path fill="#000" d="M192.532 70.918s12.155-3.729 15.324-3.204m-28.92 1.576s-11.781-2.801-13.75-2.006m35.01 4.1s8.127-2.99 11.066-1.569m-15.16 76.575c1.26-.948 2.6-1.784 4.006-2.496 2.094-1.012 5.933-3.638 5.933-3.638m-40.854-29.596s-5.099 4.185-6.63 4.552c-1.533.368-2.479 3.63-2.479 3.63"/><path fill="#EE8E9E" d="m218.716 120.54-1.626 4.447s-2.443 2.101-5.12 1.05c-2.676-1.05-5-1.571-6.166-2.594-1.166-1.022-2.792-6.158-2.792-6.158s-1.626-5.602-3.256-7.003c-1.63-1.4-5.932-20.695 0-18.808 5.933 1.887 10.47 19.393 10.47 19.393s1.046 1.281 2.557 1.4c1.511.12 4.537-.234 5.12 1.05.582 1.286 2.558 4.668.813 7.224"/><path fill="#000" d="M215.865 112.362s3.332 2.15 3.318 4.72"/><path fill="#EE8E9E" d="M187.587 18.767c8.61 0 15.589 7.002 15.589 15.64 0 8.638-6.98 15.64-15.589 15.64-8.61 0-15.588-7.002-15.588-15.64 0-8.638 6.979-15.64 15.588-15.64"/><path fill="#603556" d="M177.799 30.21c1.891-.298 3.549-1.401 5.356-2.035 4.045-1.425 8.519-.448 12.612.837 1.57.493 3.165 1.05 4.812 1.05 1.648 0 3.396-.676 4.237-2.1.775-1.31.625-3.012-.028-4.388-.652-1.376-1.745-2.482-2.847-3.525-3.63-3.439-8.131-6.653-13.112-6.303-2.002.144-3.918.862-5.76 1.657a63.398 63.398 0 0 0-6.764 3.417c-1.679.977-4.788 2.283-5.755 4.068-2.198 4.023 3.829 7.86 7.249 7.321"/><path fill="#000" d="M204.816 26.49c-.84 1.426-2.59 2.102-4.237 2.102-1.647 0-3.241-.536-4.815-1.03-4.094-1.285-8.564-2.265-12.612-.837-1.804.634-3.465 1.751-5.357 2.031-2.757.434-7.196-1.974-7.677-5.038-.541 3.54 4.606 6.572 7.677 6.089 1.892-.298 3.553-1.4 5.357-2.031 4.048-1.429 8.518-.448 12.612.837 1.574.493 3.165 1.05 4.815 1.029 1.651-.021 3.396-.672 4.237-2.1a4.11 4.11 0 0 0 .488-2.56 3.775 3.775 0 0 1-.488 1.509"/><path fill="#FF5038" d="M331.322 216.24s2.07 2.714-.956 6.813c-3.025 4.1-5.517 7.56-4.512 10.115 0 0 4.565-7.611 8.278-7.72 3.713-.108 1.27-4.632-2.81-9.208"/><path fill="#000" d="M331.322 216.24c.18.262.323.548.423.85 3.622 4.272 5.555 8.26 2.07 8.358-3.246.095-7.137 5.917-8.069 7.384.03.12.066.236.108.35 0 0 4.565-7.611 8.278-7.72 3.713-.108 1.27-4.646-2.81-9.222"/><path fill="#FFD037" d="M335.161 219.7c0 .955-.108 1.729-.237 1.729-.13 0-.24-.774-.24-1.73 0-.955.132-.504.264-.504.133 0 .213-.451.213.504"/><path fill="#FFD037" d="M336.484 220.84c-.834.456-1.563.733-1.626.617-.063-.115.561-.581 1.396-1.05.834-.47.506-.127.568 0 .063.125.5-.025-.338.434"/><path fill="#FF5038" d="M320.386 216.24s-2.07 2.714.956 6.813c3.026 4.1 5.517 7.56 4.509 10.115 0 0-4.561-7.611-8.278-7.72-3.717-.108-1.256-4.632 2.813-9.208"/><path fill="#000" d="M320.386 216.24c-.18.262-.323.548-.423.85-3.622 4.272-5.555 8.26-2.069 8.358 3.242.095 7.137 5.917 8.068 7.384a2.684 2.684 0 0 1-.111.35s-4.561-7.611-8.278-7.72c-3.717-.108-1.256-4.646 2.813-9.222"/><path fill="#FFD037" d="M316.54 219.7c0 .955.105 1.729.238 1.729.132 0 .24-.774.24-1.73 0-.955-.136-.504-.265-.504-.13 0-.213-.451-.213.504"/><path fill="#FFD037" d="M315.221 220.84c.834.456 1.563.733 1.626.617.063-.115-.562-.581-1.396-1.05-.834-.47-.506-.127-.569 0-.062.125-.499-.025.339.434"/><path fill="#FF5038" d="M325.854 247.279c11.95 0 21.636 1.49 21.636 3.33 0 1.838-9.687 3.329-21.636 3.329-11.95 0-21.636-1.49-21.636-3.33 0-1.839 9.687-3.33 21.636-3.33"/><path fill="#65617D" d="m336.99 229.51-.105.847-.147 1.198-.059.5-.147 1.197-.062.501-.143 1.194-1.658 13.62c-.146 1.215-2.125 2.163-4.516 2.163h-8.602c-2.39 0-4.365-.948-4.515-2.163l-1.658-13.62-.147-1.194-.06-.5-.145-1.198-.063-.5-.143-1.198-.105-.847c-.08-.7.988-1.268 2.342-1.268h17.595c1.35 0 2.422.578 2.338 1.268"/><path fill="#9D9CB5" d="m336.885 230.357-.143 1.198h-21.776l-.146-1.198zm-.205 1.698-.144 1.197h-21.364l-.147-1.197zm-.207 1.698-.146 1.198h-20.949l-.143-1.198z"/></g></svg>