<svg xmlns="http://www.w3.org/2000/svg" xmlns:xlink="http://www.w3.org/1999/xlink" width="386" height="290"><defs><path id="a" d="m.325.407.28.06"/><path id="c" d="M25.226.589c-1.353.43-2.584 1.159-3.851 1.797-2.362 1.19-4.965 2.129-6.75 4.08-.416.457-.795 1.038-.675 1.639.094.449.443.792.671 1.192.506.891.376 2.012.034 2.983-.341.97-.859 1.887-1.102 2.868-.244.982-.147 2.167.596 2.877.36.284.736.549 1.125.793.407.347.764.75 1.061 1.196l2.107 2.865a29.282 29.282 0 0 1 2.625 4.036c.521 1.038.93 2.151 1.631 3.08.207.276.442.53.702.755-.067-.027-.139-.05-.206-.08a3.18 3.18 0 0 0 2.355.91h.105a.638.638 0 0 0 .431-.177v.377c.037 1.378.034 2.843-.064 4.217l-.165-.083a1.421 1.421 0 0 0-1.534.162L7.94 49.288s-3.56 4.907-3.065 13.363L2.006 75.34s-3.588 10.77-.828 18.46c2.76 7.69 4.36 12.08 4.36 12.08s1.103 8.734 2.76 9.436c1.658.703 2.374 1.103 2.374 1.103l.33 2.088s.11.2.304.547c1.208 2.11 5.674 9.562 8.273 8.768.325 2.023.466 4.071.423 6.12l2.566 17.364s1.792 4.722 1.683 7.195c-.109 2.472 2.096 5.99 2.096 5.99a11.52 11.52 0 0 0-1.102 8.075c1.05 4.616 2.374 25.929 2.374 25.929l1.93 5.164-.055 6.04a5.812 5.812 0 0 1-1.185 2.68c-1.245 1.358-1.163 2.929-4.125 4.782-2.963 1.854-4.875 2.552-4.875 5.025a6.535 6.535 0 0 1-.09 1.019c-.278 1.808-.814 2.782 4.687 3.31 6.458.616 10.763-3.627 10.763-3.627s.949-1.733 5.422-2.43c0 0 1.526-.084 1.613-1.447.03-.468.022-1.366-.019-2.355-.071-1.888-.251-4.085-.488-4.194-.296-.132-.82-2.031-1-2.718h1.244s1.159-8.735 0-14.397c-1.159-5.663-.108-9.668-.108-9.668l-.222-14.94s-1.563-1.597-.337-4.504c1.226-2.907 0-17.304 0-17.304s.446-5.164 1.713-6.372c1.268-1.208.064-7.568 0-7.9l2.25 7.625s.994 15.163 3.094 17.911l.608 6.863s4.305 6.319 3.476 9.728c-.829 3.408.885 15.71.885 15.71v12.582s-1.935 5.055.773 6.866l1.166-.045c-.398.378-.683.903-1.126 1.366-.517.537-.81 2.575-.974 4.327-.139 1.483-.184 2.76-.184 2.76s1.158 1.853 3.311 1.977c2.153.125 9.274 5.606 9.274 5.606s7.042 0 8.86-.378l.11-.026a2.407 2.407 0 0 0 1.372-1.133 2.9 2.9 0 0 0 .334-2.076c-.229-1.083-1.08-2.265-2.973-3.28-4.721-2.51-5.423-4.858-5.423-4.858l-3.094-4.666h.443s-.274-4.945 3.09-10.494l-.218-24.446s1.377-8.406-.993-12.966c0 0-.195-4.836 1.39-6.32 1.587-1.483-2.11-16.48-2.11-16.48s-.75-8.048-1.666-15.394c3.724 3.555 7.59-9.252 8.25-11.528h.098s-.019-.061-.045-.167c-.026-.105.045-.162.045-.162 0-.019-.825-2.963-.221-2.363.603.6 2.1-1.645 2.1-1.645s-.222-12.254 2.374-18.43c2.594-6.175-1.17-21.195-1.17-21.195-.83-5.602-5.884-18.67-5.884-18.67-.09-.378-.188-.778-.3-1.163-3.589-12.415-8.554-13.514-8.554-13.514l-17.786-3.816c.146.092.274.213.375.354l-.282.046a7.034 7.034 0 0 1-1.56-3.397 8.774 8.774 0 0 1-.086-.574c4.949-4.851 5.053-12.822.234-17.803a12.59 12.59 0 0 0-1.824-1.559c.84-.894.866-2.144.24-3.397C38.764 3.503 35.72 1.65 32.584.747c-1.35-.39-2.766-.63-4.168-.63-1.083 0-2.157.143-3.19.472zM14.156 96.74c.608-2.642-1.215-9.561-1.215-9.724 0-.162-.165-3.846 1.159-6.677 1.324-2.831.443-4.04.443-4.04s1.106-4.612 2.43-3.733c0 0 1.875 23.623 0 27.028-.537.97-.983 2.696-1.354 4.67-.619-1.639-1.931-5.486-1.463-7.524zm48.833-6.319-.375-14.284 1.882 1.586.019-.034c.375 7.482-.075 23.445-.075 23.445s-.51 2.046-1.057 4.455l-.394-15.168z"/><path id="e" d="M30.868.604c-2.695.89-5.698 2.064-6.752 4.69-.602 1.51-.433 3.204-.986 4.721-.377 1.015-1.043 1.887-1.54 2.853a4.47 4.47 0 0 0-.575 2.381c-.042.43.018.865.177 1.268.186.481.485.91.873 1.249-.141.3-.319.58-.527.838-.688.845-1.746 1.449-2.461 2.264-1.325 1.54-1.276 3.634-.621 5.445.655 1.812 1.829 3.46 2.634 5.223.35.755.633 1.622.268 2.385-.253.528-.78.928-1.19 1.385a4.366 4.366 0 0 0-1.076 2.422c-8.065 1.846-8.069 8.34-8.069 8.34l-4.35 10.996s-.697 1.85-1.505 4.29L.01 60.43l3.56 6.015c-.68 2.45-1.159 4.72-1 5.86 0 0-1.6 7.548 1.245 8.865l6.285 2.834c.271.165.564.291.87.377l.255.113a.665.665 0 0 0 .587 0h.103a.8.8 0 0 0 .376-.052.678.678 0 0 0 .313-.344.128.128 0 0 0 0-.033l1.881-.548 1.596 1.887c.719.505 1.422.947 2.111 1.343l-2.453 24.604s-.4 32.702-1.6 40.147c-.448 2.759-.451 4.638-.282 5.917l-.045.083c.298 2.102 1.069 2.517 1.069 2.517v-.03l.045.03c.363-.955.795-1.881 1.29-2.773v.535c-.022 2.777-.108 6.66-.376 9.185-.489 4.295 1.246 18.521 1.246 18.521l.598 12.943a11.997 11.997 0 0 1-1.468 6.303c-1.418 2.584-3.266 6.218-3.387 7.83a2.21 2.21 0 0 0 0 .264l-3.146 3.671s-1.204 1.86 1.506 2.611c1.456.408 3.974 0 5.991-.479a4.012 4.012 0 0 0 3.109-3.905 13.824 13.824 0 0 1 2.566-4.88l.508 2.977 3.388.842.433-8.162c.175-.46.254-.95.233-1.442.666-5.803-1.57-5.282-1.57-5.282a.376.376 0 0 1 .11.203 3.18 3.18 0 0 1-.11-.2c-1.373-2.716-.7-7.17-.7-7.17s1.78-12.935 2.405-16.35c.44-2.412.26-10.314.113-14.74 0-.185 0-.377-.019-.532 5.242-.068 11.667-.25 16.183-.687v.536l-.835 30.566a16.844 16.844 0 0 1-1.163 5.683c0 .034-.03.068-.042.102a24.861 24.861 0 0 0-1.686 7.996l-.376 9.713v.268c-.674.26-1.735 1.012-1.765 3.189-.045 3.189 5.558 2.124 5.558 2.124 5.604 0 5.646-5.848 5.646-5.848s.18-5.363.444-8.952c.255-3.472-.773-2.842-.84-2.798v-.013l.02-.275.695-10.529s5.16-17.546 5.962-20.912c.568-2.39.33-9.597.143-13.585 0-.186 0-.36-.022-.529a41.872 41.872 0 0 1 3.578-.159h.26s-.268-28.18-.933-38.815c-.667-10.634-1.735-20.339-4.407-23.264-1.611-1.766-3.858-7.222-5.386-11.264a56.448 56.448 0 0 0 9.879 3.245c8.453 1.774 7.297-5.585 7.297-5.585l-.858-13.913h.057a70.809 70.809 0 0 0-.933-10.879c-.445-2.758-1.13-5.61-2.176-7.925.919-.35 1.822-.754 2.71-1.132 2.296-1.015 4.892-2.456 5.216-4.94h-.112a3.53 3.53 0 0 0 .086-.528c-4.938-.098-9.296-3.607-11.765-7.864a7.935 7.935 0 0 1-1.19-3.366c.018-.273.064-.543.137-.807.158-.4.284-.81.376-1.23.02-.168.02-.338 0-.506v-.023c.12-.913-.414-1.792-1.084-2.422-.67-.631-1.487-1.087-2.175-1.695-2.123-1.868-2.767-4.864-2.808-7.717v-.15c.023-1.22.12-2.446.11-3.669a15.525 15.525 0 0 0-.091-2.079c-.203-1.728-.859-3.487-2.213-4.589-1.79-1.454-4.2-1.405-6.616-1.355-2.353.048-4.712.096-6.515-1.245-.892-.66-1.61-1.645-2.687-1.886a2.549 2.549 0 0 0-.598-.068c-.626 0-1.258.2-1.86.4zM14.65 64.098l2.69-4.377.11 1.283c.022 1.438-.034 3.928-.117 6.687l-2.683-3.593zm38.64 4.215.127-.03-.207.196.245-.049a7.676 7.676 0 0 0 1.524 3.072c1.534 1.712-.298 2.186-.443 2.22l-4.464-1.44a20.258 20.258 0 0 1 2.762-3.425l.376-.378-.139.03.218-.196zM48.683 203.2l.082-1.237-.082 10.105V203.2z"/></defs><g fill="none" fill-rule="evenodd"><path fill="#FF5038" d="M66.344 267.31c36.64 0 66.344 5.08 66.344 11.345 0 6.266-29.704 11.345-66.344 11.345C29.704 290 0 284.92 0 278.655c0-6.265 29.703-11.344 66.344-11.344m253.112-2.686c36.64 0 66.344 5.08 66.344 11.344 0 6.266-29.703 11.345-66.344 11.345-36.64 0-66.343-5.08-66.343-11.345 0-6.265 29.703-11.344 66.343-11.344" opacity=".377"/><path fill="#F6F7F9" d="M97.457 152.298h71.983V111.93H97.457z"/><path fill="#FF5038" d="M111.009 122.33c4.139 0 7.494 3.367 7.494 7.52 0 4.154-3.355 7.521-7.494 7.521-4.139 0-7.494-3.367-7.494-7.52 0-4.154 3.355-7.52 7.494-7.52m16.631.669h32.652v-2.062H127.64zm0 5.254h16.635v-2.061H127.64zm0 5.255h26.903v-2.062H127.64zm0 5.254h32.652v-2.062H127.64zm23.62 9.507h9.036v-3.984h-9.036z"/><path fill="#F6F7F9" d="M158.06 40.739h71.983V.372H158.06z"/><path fill="#FF5038" d="M171.615 10.771c4.139 0 7.494 3.368 7.494 7.52 0 4.154-3.355 7.52-7.494 7.52-4.138 0-7.493-3.366-7.493-7.52 0-4.152 3.355-7.52 7.493-7.52m16.632.67h32.651V9.379h-32.651zm0 5.254h16.634v-2.061h-16.634zm0 5.255h26.903v-2.062h-26.903zm0 5.258h32.651v-2.062h-32.651zm23.616 9.502h9.035v-3.983h-9.035z"/><path fill="#F6F7F9" d="M182.02 108.512h71.982V68.145H182.02z"/><path fill="#FF5038" d="M195.57 78.548c4.14 0 7.495 3.367 7.495 7.52s-3.355 7.52-7.494 7.52c-4.139 0-7.494-3.367-7.494-7.52s3.355-7.52 7.494-7.52m16.635.67h32.651v-2.062h-32.651zm0 5.254h16.635V82.41h-16.635zm0 5.254h26.903v-2.061h-26.903zm0 5.254h32.651v-2.06h-32.651zm23.616 9.507h9.036v-3.983h-9.036z"/><path d="M72 93h121V24H72z"/><path fill="#F6F7F9" d="M73 92h119V25H73z"/><path fill="#FF5038" d="M95.64 42.548c6.817 0 12.343 5.604 12.343 12.516 0 6.913-5.526 12.517-12.344 12.517-6.817 0-12.343-5.604-12.343-12.517 0-6.912 5.526-12.516 12.343-12.516m27.403 1.109h53.786v-3.43h-53.786zm0 8.749h27.398v-3.429h-27.398zm0 8.746h44.315v-3.43h-44.315zm0 8.745h53.786v-3.429h-53.786zM162 86h15v-7h-15z"/><path d="M157 181h115v-64H157z"/><path fill="#F6F7F9" d="M157 181h114v-63H157z"/><path fill="#FF5038" d="M179.793 134.155c6.541 0 11.844 5.287 11.844 11.808s-5.303 11.808-11.844 11.808c-6.542 0-11.845-5.287-11.845-11.808s5.303-11.808 11.845-11.808m26.287 1.047h51.607v-3.234H206.08zm0 8.253h26.289v-3.234h-26.288zm0 8.25h42.52v-3.234h-42.518zm0 8.249h51.607v-3.234H206.08zm37.326 14.926h14.28v-6.254h-14.28z"/><g transform="translate(31 82)"><mask id="b" fill="#fff"><use xlink:href="#a"/></mask><path d="m.325.407.28.06a.38.38 0 0 0-.28-.06" mask="url(#b)"/></g><g transform="translate(14 57)"><mask id="d" fill="#fff"><use xlink:href="#c"/></mask><path d="M25.226.589c-1.353.43-2.584 1.159-3.851 1.797-2.362 1.19-4.965 2.129-6.75 4.08-.416.457-.795 1.038-.675 1.639.094.449.443.792.671 1.192.506.891.376 2.012.034 2.983-.341.97-.859 1.887-1.102 2.868-.244.982-.147 2.167.596 2.877.36.284.736.549 1.125.793.407.347.764.75 1.061 1.196l2.107 2.865a29.282 29.282 0 0 1 2.625 4.036c.521 1.038.93 2.151 1.631 3.08.207.276.442.53.702.755-.067-.027-.139-.05-.206-.08a3.18 3.18 0 0 0 2.355.91h.105a.638.638 0 0 0 .431-.177v.377c.037 1.378.034 2.843-.064 4.217l-.165-.083a1.421 1.421 0 0 0-1.534.162L7.94 49.288s-3.56 4.907-3.065 13.363L2.006 75.34s-3.588 10.77-.828 18.46c2.76 7.69 4.36 12.08 4.36 12.08s1.103 8.734 2.76 9.436c1.658.703 2.374 1.103 2.374 1.103l.33 2.088s.11.2.304.547c1.208 2.11 5.674 9.562 8.273 8.768.325 2.023.466 4.071.423 6.12l2.566 17.364s1.792 4.722 1.683 7.195c-.109 2.472 2.096 5.99 2.096 5.99a11.52 11.52 0 0 0-1.102 8.075c1.05 4.616 2.374 25.929 2.374 25.929l1.93 5.164-.055 6.04a5.812 5.812 0 0 1-1.185 2.68c-1.245 1.358-1.163 2.929-4.125 4.782-2.963 1.854-4.875 2.552-4.875 5.025a6.535 6.535 0 0 1-.09 1.019c-.278 1.808-.814 2.782 4.687 3.31 6.458.616 10.763-3.627 10.763-3.627s.949-1.733 5.422-2.43c0 0 1.526-.084 1.613-1.447.03-.468.022-1.366-.019-2.355-.071-1.888-.251-4.085-.488-4.194-.296-.132-.82-2.031-1-2.718h1.244s1.159-8.735 0-14.397c-1.159-5.663-.108-9.668-.108-9.668l-.222-14.94s-1.563-1.597-.337-4.504c1.226-2.907 0-17.304 0-17.304s.446-5.164 1.713-6.372c1.268-1.208.064-7.568 0-7.9l2.25 7.625s.994 15.163 3.094 17.911l.608 6.863s4.305 6.319 3.476 9.728c-.829 3.408.885 15.71.885 15.71v12.582s-1.935 5.055.773 6.866l1.166-.045c-.398.378-.683.903-1.126 1.366-.517.537-.81 2.575-.974 4.327-.139 1.483-.184 2.76-.184 2.76s1.158 1.853 3.311 1.977c2.153.125 9.274 5.606 9.274 5.606s7.042 0 8.86-.378l.11-.026a2.407 2.407 0 0 0 1.372-1.133 2.9 2.9 0 0 0 .334-2.076c-.229-1.083-1.08-2.265-2.973-3.28-4.721-2.51-5.423-4.858-5.423-4.858l-3.094-4.666h.443s-.274-4.945 3.09-10.494l-.218-24.446s1.377-8.406-.993-12.966c0 0-.195-4.836 1.39-6.32 1.587-1.483-2.11-16.48-2.11-16.48s-.75-8.048-1.666-15.394c3.724 3.555 7.59-9.252 8.25-11.528h.098s-.019-.061-.045-.167c-.026-.105.045-.162.045-.162 0-.019-.825-2.963-.221-2.363.603.6 2.1-1.645 2.1-1.645s-.222-12.254 2.374-18.43c2.594-6.175-1.17-21.195-1.17-21.195-.83-5.602-5.884-18.67-5.884-18.67-.09-.378-.188-.778-.3-1.163-3.589-12.415-8.554-13.514-8.554-13.514l-17.786-3.816c.146.092.274.213.375.354l-.282.046a7.034 7.034 0 0 1-1.56-3.397 8.774 8.774 0 0 1-.086-.574c4.949-4.851 5.053-12.822.234-17.803a12.59 12.59 0 0 0-1.824-1.559c.84-.894.866-2.144.24-3.397C38.764 3.503 35.72 1.65 32.584.747c-1.35-.39-2.766-.63-4.168-.63-1.083 0-2.157.143-3.19.472zM14.156 96.74c.608-2.642-1.215-9.561-1.215-9.724 0-.162-.165-3.846 1.159-6.677 1.324-2.831.443-4.04.443-4.04s1.106-4.612 2.43-3.733c0 0 1.875 23.623 0 27.028-.537.97-.983 2.696-1.354 4.67-.619-1.639-1.931-5.486-1.463-7.524zm48.833-6.319-.375-14.284 1.882 1.586.019-.034c.375 7.482-.075 23.445-.075 23.445s-.51 2.046-1.057 4.455l-.394-15.168z" mask="url(#d)"/></g><path fill="#EFB7B9" d="M34.876 181.918c-1.638 7.249-8.168-3.715-9.655-6.345l-.301-.545.708-3.333 3.742-1.531c.592.31 1.152.677 1.672 1.096 2.06 1.604 5.099 5.043 3.834 10.658m50.644-11.864-.04.162c0 .05-.035.106-.054.178-.64 2.27-4.447 15.005-8.122 11.467-4.021-3.881-2.067-12.795-2.067-12.795h.038l8.46-.87 1.676 1.733.11.125z"/><path fill="#444053" d="m80.626 232.747.214 24.32c-3.313 5.523-3.046 10.442-3.046 10.442l-10.92.435c-2.666-1.801-.753-6.83-.753-6.83v-12.518s-1.706-12.236-.892-15.64c.813-3.406-3.427-9.675-3.427-9.675l-.595-6.829c-2.07-2.731-3.05-17.82-3.05-17.82l-2.225-7.566c.056.33 1.212 6.69 0 7.858-1.213 1.17-1.687 6.341-1.687 6.341s1.197 14.32 0 17.214c-1.198 2.895.324 4.54.324 4.54l.222 14.865s-1.036 3.991.105 9.621c1.141 5.63 0 14.32 0 14.32H43.148l.053-6.053-1.902-5.138s-1.306-21.206-2.338-25.795a11.566 11.566 0 0 1 1.084-8.036s-2.172-3.5-2.063-5.958c.11-2.46-1.66-7.159-1.66-7.159l-2.53-17.27a33.656 33.656 0 0 0-1.251-9.837c-1.472-4.918-3.645-11.369-3.645-11.369l2.455.22 12.396 1.108s30.123-2.036 31.483-.344a5.67 5.67 0 0 1 .572 1.763c1.352 6.11 3.14 25.238 3.14 25.238s3.645 14.922 2.079 16.397c-1.567 1.476-1.37 6.284-1.37 6.284 2.334 4.51.975 12.871.975 12.871"/><path fill="#B07473" d="M55.152 275.033c-.086 1.355-1.592 1.438-1.592 1.438-4.406.697-5.34 2.421-5.34 2.421s-4.243 4.22-10.6 3.625c-5.418-.522-4.895-1.514-4.616-3.292.055-.335.084-.673.087-1.014 0-2.459 1.882-3.158 4.816-5 2.933-1.843 2.854-3.406 4.078-4.757 1.223-1.35 1.348-3.972 1.348-3.972 1.385-2.422 4.895.378 4.895.378.162.86 5.384.757 5.384.757s.693 2.788 1.047 2.95c.234.11.41 2.297.482 4.162.034.946.038 1.843.011 2.304"/><path fill="#000" d="M55.152 275.033c-.086 1.355-1.592 1.438-1.592 1.438-4.406.697-5.34 2.421-5.34 2.421s-4.243 4.22-10.6 3.625c-5.418-.522-4.895-1.514-4.616-3.292 2.421.606 7.053 1.446 9.756-.03 3.766-2.05 6.45-3.484 6.45-3.484l5.924-3.03c.041.994.045 1.89.018 2.352"/><path fill="#B07473" d="M88.356 282.331c-.29.54-.775.947-1.355 1.135a.513.513 0 0 1-.106.027c-1.796.378-8.732.378-8.732.378s-7.03-5.47-9.139-5.595c-2.108-.125-3.264-1.968-3.264-1.968s.041-1.27.177-2.746c.165-1.744.455-3.784.964-4.306.941-.983 1.13-2.334 3.264-1.475 0 0 3.013-5.338 6.567-1.215l3.675 5.604s.693 2.334 5.347 4.835c1.864 1.002 2.704 2.182 2.926 3.26a2.898 2.898 0 0 1-.324 2.066"/><path fill="#000" d="M88.356 282.331c-.414.353-.877.731-1.355 1.135a.513.513 0 0 1-.106.027c-1.796.378-8.732.378-8.732.378s-7.03-5.47-9.139-5.595c-2.108-.125-3.264-1.968-3.264-1.968s.041-1.27.177-2.746c2.157.65 5.433 1.797 6.31 3.026 1.345 1.892 5.43 4.506 5.43 4.506s7.618-.734 11.003-.835c.155.707.04 1.447-.324 2.072"/><path fill="#EFB7B9" d="m58.707 91.595-10.039 10.657s-12.158-.9-10.035-4.51c1.081-1.834 1.25-5.674 1.156-9.026-.09-3.228-.421-5.974-.421-5.974s17.053-8.528 15.747-.575a13.263 13.263 0 0 0-.05 4.54c.743 4.018 3.642 4.888 3.642 4.888"/><path fill="#000" d="M55.111 82.167a13.244 13.244 0 0 0-.049 4.54 12.486 12.486 0 0 1-8.924 3.741c-2.32 0-4.8-1.891-6.665-3.007-.09-3.228-.109-4.7-.109-4.7s17.054-8.527 15.747-.574"/><path fill="#EFB7B9" d="M58.707 77.165c.002 6.975-5.623 12.63-12.565 12.633-6.941.002-12.57-5.65-12.573-12.624-.002-6.975 5.623-12.631 12.565-12.633 2.85-.001 5.616.971 7.844 2.757a12.65 12.65 0 0 1 4.729 9.867"/><path fill="#000" d="M75.798 171.926c-3.129 7.484-23.259 7.639-23.259 7.639v-8.157l-1.22-.08c.527 2.335-.753 8.032-.753 8.032-15.909 2.27-19.783-6.843-19.783-6.843l.55-3.118 12.395 1.109s30.124-2.036 31.483-.345c.291.551.49 1.147.587 1.763"/><path fill="#E1E7EF" d="M52.54 178.581v-8.16l-1.22-.076c.526 2.334-.754 8.032-.754 8.032-11.97 1.695-17.133-3.027-18.951-5.486a7.423 7.423 0 0 1-.832-1.362l4.853-27.463 1.13-40.417 1.75-7.09.407-3.405v-.038l.042.019 1.235.533 7.41 3.216 8.461-6.383.124-.094.418-.318.697.564 1.728 1.392 5.55 35.995s9.625 27.716 11.41 38.904c.071.446.132.862.177 1.252 1.17 10.196-23.636 10.385-23.636 10.385"/><path fill="#67647E" d="M48.54 96.944a.718.718 0 0 1 0 1.438.717.717 0 0 1-.715-.719c0-.397.32-.719.715-.719m.332 6.557c.395 0 .715.322.715.719 0 .397-.32.719-.715.719a.717.717 0 0 1-.716-.72c0-.396.32-.718.716-.718m.711 10.619a.719.719 0 0 1 0 1.438.717.717 0 0 1-.715-.718c0-.397.32-.72.715-.72m1.187 11.434c.394 0 .715.322.715.719 0 .397-.32.719-.716.719a.717.717 0 0 1-.715-.72c0-.396.32-.718.715-.718m.712 10.741c.395 0 .716.322.716.719 0 .396-.32.719-.716.719a.718.718 0 0 1-.715-.72c0-.396.32-.718.715-.718m.716 11.437c.394 0 .715.322.715.718 0 .398-.32.72-.715.72a.717.717 0 0 1-.716-.72c0-.396.32-.718.716-.718m-.287 11.316c.395 0 .716.322.716.718 0 .398-.32.72-.716.72a.717.717 0 0 1-.715-.72c0-.396.32-.718.715-.718"/><path fill="#000" d="M39.428 148.061s-.798 10.518-2.26 13.575c-1.46 3.057-2.123 11.64-2.123 11.64l-3.389-.378a7.43 7.43 0 0 1-.832-1.361l4.854-27.463 1.13-40.418 1.75-7.09.407-3.405a.096.096 0 0 1 .045-.019 1.368 1.368 0 0 1 1.212.02l.166.082c-.049.14-.098.284-.143.432-1.325 4.18-1.822 11.89-1.822 11.89s1.905 14.101 2.12 20.662c.214 6.56-1.115 21.833-1.115 21.833"/><path fill="#000" d="M31.042 171.26c-.037.087-.08.172-.128.254-1.321 2.244-4.673 3.67-5.693 4.06l-.301-.546.708-3.333 3.742-1.531c.592.31 1.152.677 1.672 1.096"/><path fill="#67647E" d="m21.983 117.586-3.1 1.87-2.83 12.624s-3.537 10.715-.814 18.365a2128.36 2128.36 0 0 0 4.308 12.012s1.088 8.701 2.718 9.401c1.63.7 2.342 1.094 2.342 1.094l.324 2.077s4.428-1.514 5.995-4.162c1.566-2.648-1.153-9.273-1.153-9.273s-2.338-5.63-1.74-8.251c.6-2.622-1.197-9.512-1.197-9.674 0-.163-.161-3.83 1.13-6.644 1.292-2.815.437-4.014.437-4.014l-.817-8.036-5.603-7.389z"/><path fill="#000" d="M76.054 169.562s-8.212 3.117-10.825.378c-2.614-2.739-2.339-15.511-2.339-15.511s-2.5-23.612-4.081-27.49c-1.582-3.878-.754-31.867-.754-31.867s-1.069-3.613-1.984-4.57a.92.92 0 0 0-.196-.163l.32.068 1.13.246 1.728 1.392 5.55 35.995s9.625 27.717 11.41 38.904l.041 2.618z"/><path fill="#000" d="M85.52 170.383h-.094c-1.031.132-10.166 1.24-10.2-.666 0-.221.013-.443.038-.662l8.46-.87 1.676 1.732c.03.114.057.212.08.288l.04.178z"/><path fill="#67647E" d="m76.781 104.939 6.006 3.143s4.982 13 5.799 18.577c0 0 3.697 14.932 1.13 21.073-2.569 6.14-2.339 18.334-2.339 18.334s-1.469 2.24-2.067 1.638c-.599-.601.218 2.35.218 2.35s-10.253 1.37-10.302-.659c-.049-2.028 2.353-11.698 2.353-11.698s.652-23.01-.275-26.616c-.926-3.605-.523-26.142-.523-26.142"/><path fill="#000" d="M58.865 129.447s-3.389 8.305-4.462 8.853c-1.073.549.218 2.732.218 2.732s6.15-8.634 4.244-11.585m-2.011-29.135c.038-.16-4.029 4.006-5.113 4.627-1.084.62 3.954-.034 5.113-4.627m-11.326 28.477s-6.202 4.033-5.388 5.622c.813 1.59 5.388-5.622 5.388-5.622m11.27 58.811s5.272 3.406 13.492 4.265L56.798 187.6zm-12.675 8.2s4.896 6.174 7.128 6.34c2.233.166-7.128-6.34-7.128-6.34m6.854 24.212c-.219.11-2.776 5.573-5.385 5.74-2.61.166 5.385-5.74 5.385-5.74m22.686 11.968s4.85-1.09 5.927 2.405c0 0-.324-1.093-5.927-2.406m-3.264 20.006s5.874-1.203 7.124.44c1.25 1.641-7.124-.44-7.124-.44m-16.629 2.789c0 .053-5.983 1.203-5.746 1.967.238.764 6.38.655 6.598-.549a1.136 1.136 0 0 0-.851-1.418m14.669 5.19s9.828-1.203 9.21.875c-.617 2.077-9.21-.875-9.21-.875M16.979 138.3c.056.163 6.472 1.036 7.342 3.114 0 0-6.307-2.951-7.286-2.951m8.973 16.726s-5.332 1.694-4.955 4.264c.376 2.569-.539-1.2 4.955-4.264m-2.485 13.007s1.943-2.679 3.792-2.187c1.848.492-3.792 2.187-3.792 2.187M53.974 67.298c-.188.182-.398.34-.625.47-1.548.9-1.962 2.27-2.704 3.885-.678 1.464-1.427 3.027-2.801 3.844-1.77 1.07-4.105.677-5.946 1.615a4.662 4.662 0 0 0-2.462 4.57c.12.711.296 1.41.527 2.093.415 1.476.604 3.007.56 4.54a.622.622 0 0 1 0 .14c-6.21-3.114-8.734-10.698-5.635-16.94 3.1-6.24 10.647-8.775 16.859-5.66.796.398 1.547.881 2.242 1.44l-.015.003z"/><path fill="#585268" d="M53.646 63.5c-1.382-2.917-4.383-4.76-7.47-5.675-2.358-.685-4.914-.908-7.253-.155-1.333.427-2.549 1.135-3.795 1.785-2.331 1.185-4.895 2.12-6.646 4.064-.407.45-.783 1.033-.663 1.63.09.447.437.787.66 1.185.5.885.376 2 .033 2.966-.343.964-.843 1.865-1.084 2.856-.241.991-.147 2.153.583 2.86.353.281.72.544 1.1.787.399.349.75.75 1.043 1.192l2.074 2.849a28.765 28.765 0 0 1 2.599 4.018c.52 1.033.918 2.137 1.607 3.06.69.924 1.77 1.665 2.915 1.563.18.006.35-.076.46-.22a.578.578 0 0 0 .06-.29 14.96 14.96 0 0 0-.562-4.54 13.513 13.513 0 0 1-.527-2.093 4.666 4.666 0 0 1 2.463-4.57c1.845-.935 4.18-.541 5.95-1.612 1.374-.836 2.123-2.383 2.8-3.848.754-1.6 1.157-2.985 2.704-3.885 1.548-.9 1.714-2.395.95-3.927"/><path fill="#000" d="M48.017 269.873s1.913 2.46 1.423 3.851c-.49 1.393-1.423-3.851-1.423-3.851m26.008 6.147s.425-3.298 2.139-3.328c1.713-.03 1.796-.178 3.102.325 1.307.503 2.53 1.29 2.143 1.411-.388.121-2.26-1.892-4.142-.866a13.723 13.723 0 0 0-3.242 2.459M42.282 101.004l5.362-3.783s-7.873-4.677-8.811-4.018c-.938.658-1.581 6.56-1.581 6.56l5.03 1.24z"/><path fill="#E1E7EF" d="m42.26 100.758 5.384-3.874s-7.873-4.673-8.811-4.018c-.938.655-1.582 6.89-1.582 6.89l5.008 1.002z"/><path fill="#000" d="m42.26 100.758 5.384-3.874s-7.873-4.673-8.811-4.018c-.938.655-1.582 6.89-1.582 6.89l5.008 1.002z"/><path fill="#67647E" d="m39.722 92.911-.162-.083a1.384 1.384 0 0 0-1.506.159l-16.147 13.162s-3.509 4.877-3.012 13.295L28.415 133s1.087-4.593 2.394-3.72c0 0 1.849 23.503 0 26.892-1.849 3.39-2.666 16.069-2.666 16.069l6.254.71s.652-8.58 2.12-11.64c1.469-3.062 2.26-13.58 2.26-13.58s1.321-15.28 1.103-21.844c-.219-6.564-2.12-20.657-2.12-20.657s.53-8.263 1.962-12.319"/><path fill="#000" d="m55.804 98.605-6.706-2.497s8.543-9.397 9.605-4.184l-2.9 6.681z"/><path fill="#E1E7EF" d="m55.804 98.269-6.706-2.494s8.543-9.401 9.605-4.188l-2.9 6.682z"/><path fill="#000" d="m55.804 98.269-6.706-2.494s8.543-9.401 9.605-4.188l-2.9 6.682z"/><path fill="#000" d="M55.59 90.282a.376.376 0 0 1 .274.057l-.275-.057z"/><path fill="#67647E" d="m56.24 89.624 17.804 3.859s4.895 1.093 8.43 13.442c3.536 12.349-4.842 27.486-4.842 27.486l-1.849-1.578.927 36.074s-8.217 3.114-10.826.379c-2.61-2.735-2.342-15.512-2.342-15.512s-2.5-23.62-4.082-27.509c-1.581-3.889-.753-31.867-.753-31.867s-1.472-4.99-2.466-4.774"/><path fill="#000" d="M72.519 112.611c-.253.235-.543 11.15.546 19.458a106.368 106.368 0 0 0 3.084 14.974l-1.616-33.293s-1.254-1.861-2.014-1.139m-2.177-9.401c.437.272 2.342 4.808 1.469 6.67-.874 1.861-1.469-6.67-1.469-6.67M53.54 63.5a9.817 9.817 0 0 0-3.912-4.116 9.32 9.32 0 0 1 2.934 3.461c.753 1.533.542 3.069-.953 3.939-1.495.87-1.962 2.27-2.7 3.885-.678 1.464-1.43 3.027-2.805 3.844-1.77 1.075-4.1.681-5.946 1.612a4.67 4.67 0 0 0-2.462 4.574c.118.71.294 1.41.527 2.092.418 1.476.606 3.007.557 4.54.007.1-.013.2-.056.291a.552.552 0 0 1-.46.22c-.46.036-.923-.05-1.34-.25a3.114 3.114 0 0 0 2.32.904.55.55 0 0 0 .459-.22.622.622 0 0 0 .06-.29 15.068 15.068 0 0 0-.561-4.54 13.119 13.119 0 0 1-.527-2.093 4.666 4.666 0 0 1 2.462-4.57c1.845-.934 4.176-.54 5.946-1.612 1.374-.836 2.127-2.383 2.805-3.847.753-1.6 1.152-2.985 2.7-3.886 1.548-.9 1.713-2.406.953-3.938"/><path fill="#FF5038" d="M364.272 259.128c8.526 0 15.438.954 15.438 2.13 0 1.177-6.912 2.13-15.438 2.13-8.527 0-15.438-.953-15.438-2.13 0-1.176 6.911-2.13 15.438-2.13m-121.025 20.604c6.06 0 10.973.678 10.973 1.514s-4.913 1.513-10.973 1.513c-6.06 0-10.973-.677-10.973-1.513 0-.836 4.913-1.514 10.973-1.514m-98.18-11.217c6.06 0 10.973.677 10.973 1.513 0 .836-4.913 1.514-10.973 1.514-6.06 0-10.972-.678-10.972-1.514s4.912-1.513 10.972-1.513"/><path fill="#FF5038" d="M151.11 266.585a4.404 4.404 0 0 0 1.443-2.19c.188-.866-.18-1.911-1.01-2.229-.926-.355-1.916.292-2.665.943-.75.65-1.612 1.395-2.59 1.256a3.984 3.984 0 0 0 1.22-3.712 1.6 1.6 0 0 0-.34-.757c-.516-.552-1.45-.314-2.063.122-1.958 1.38-2.504 4.055-2.516 6.458-.195-.867-.03-1.771-.037-2.649-.008-.877-.245-1.891-.994-2.353a3.005 3.005 0 0 0-1.506-.378c-.878-.035-1.86.057-2.46.704-.752.802-.553 2.148.095 3.026.648.878 1.638 1.441 2.55 2.05a5.654 5.654 0 0 1 1.818 1.745c.056.1.102.205.135.314h5.52a15.517 15.517 0 0 0 3.4-2.35m219.424-7.983a4.435 4.435 0 0 0 1.457-2.19c.188-.866-.18-1.892-1.01-2.228-.926-.356-1.916.29-2.665.942-.75.65-1.612 1.396-2.594 1.256a3.965 3.965 0 0 0 1.22-3.712 1.52 1.52 0 0 0-.34-.756c-.512-.553-1.445-.314-2.059.12-1.958 1.382-2.504 4.056-2.516 6.459-.199-.867-.03-1.77-.037-2.649-.007-.877-.249-1.891-.994-2.353a2.999 2.999 0 0 0-1.506-.378c-.881-.034-1.86.057-2.463.704-.753.802-.554 2.148.098 3.026.651.878 1.638 1.442 2.549 2.051a5.653 5.653 0 0 1 1.819 1.744c.055.1.1.205.136.314h5.516a15.459 15.459 0 0 0 3.389-2.35M246.226 276.29a4.441 4.441 0 0 0 1.446-2.191c.184-.87-.185-1.892-1.01-2.228-.926-.356-1.917.287-2.666.942-.749.654-1.611 1.392-2.594 1.256a3.973 3.973 0 0 0 1.22-3.712 1.56 1.56 0 0 0-.34-.756c-.515-.553-1.445-.314-2.062.12-1.958 1.385-2.505 4.056-2.516 6.463-.195-.867-.03-1.771-.034-2.649-.003-.877-.248-1.891-.993-2.353a3.027 3.027 0 0 0-1.507-.378c-.88-.03-1.86.056-2.462.703-.753.806-.554 2.153.097 3.027.652.874 1.639 1.438 2.546 2.05a5.662 5.662 0 0 1 1.838 1.771c.054.1.1.203.135.31h5.513a15.32 15.32 0 0 0 3.389-2.375"/><g transform="translate(288 63)"><mask id="f" fill="#fff"><use xlink:href="#e"/></mask><path d="M30.868.604c-2.695.89-5.698 2.064-6.752 4.69-.602 1.51-.433 3.204-.986 4.721-.377 1.015-1.043 1.887-1.54 2.853a4.47 4.47 0 0 0-.575 2.381c-.042.43.018.865.177 1.268.186.481.485.91.873 1.249-.141.3-.319.58-.527.838-.688.845-1.746 1.449-2.461 2.264-1.325 1.54-1.276 3.634-.621 5.445.655 1.812 1.829 3.46 2.634 5.223.35.755.633 1.622.268 2.385-.253.528-.78.928-1.19 1.385a4.366 4.366 0 0 0-1.076 2.422c-8.065 1.846-8.069 8.34-8.069 8.34l-4.35 10.996s-.697 1.85-1.505 4.29L.01 60.43l3.56 6.015c-.68 2.45-1.159 4.72-1 5.86 0 0-1.6 7.548 1.245 8.865l6.285 2.834c.271.165.564.291.87.377l.255.113a.665.665 0 0 0 .587 0h.103a.8.8 0 0 0 .376-.052.678.678 0 0 0 .313-.344.128.128 0 0 0 0-.033l1.881-.548 1.596 1.887c.719.505 1.422.947 2.111 1.343l-2.453 24.604s-.4 32.702-1.6 40.147c-.448 2.759-.451 4.638-.282 5.917l-.045.083c.298 2.102 1.069 2.517 1.069 2.517v-.03l.045.03c.363-.955.795-1.881 1.29-2.773v.535c-.022 2.777-.108 6.66-.376 9.185-.489 4.295 1.246 18.521 1.246 18.521l.598 12.943a11.997 11.997 0 0 1-1.468 6.303c-1.418 2.584-3.266 6.218-3.387 7.83a2.21 2.21 0 0 0 0 .264l-3.146 3.671s-1.204 1.86 1.506 2.611c1.456.408 3.974 0 5.991-.479a4.012 4.012 0 0 0 3.109-3.905 13.824 13.824 0 0 1 2.566-4.88l.508 2.977 3.388.842.433-8.162c.175-.46.254-.95.233-1.442.666-5.803-1.57-5.282-1.57-5.282a.376.376 0 0 1 .11.203 3.18 3.18 0 0 1-.11-.2c-1.373-2.716-.7-7.17-.7-7.17s1.78-12.935 2.405-16.35c.44-2.412.26-10.314.113-14.74 0-.185 0-.377-.019-.532 5.242-.068 11.667-.25 16.183-.687v.536l-.835 30.566a16.844 16.844 0 0 1-1.163 5.683c0 .034-.03.068-.042.102a24.861 24.861 0 0 0-1.686 7.996l-.376 9.713v.268c-.674.26-1.735 1.012-1.765 3.189-.045 3.189 5.558 2.124 5.558 2.124 5.604 0 5.646-5.848 5.646-5.848s.18-5.363.444-8.952c.255-3.472-.773-2.842-.84-2.798v-.013l.02-.275.695-10.529s5.16-17.546 5.962-20.912c.568-2.39.33-9.597.143-13.585 0-.186 0-.36-.022-.529a41.872 41.872 0 0 1 3.578-.159h.26s-.268-28.18-.933-38.815c-.667-10.634-1.735-20.339-4.407-23.264-1.611-1.766-3.858-7.222-5.386-11.264a56.448 56.448 0 0 0 9.879 3.245c8.453 1.774 7.297-5.585 7.297-5.585l-.858-13.913h.057a70.809 70.809 0 0 0-.933-10.879c-.445-2.758-1.13-5.61-2.176-7.925.919-.35 1.822-.754 2.71-1.132 2.296-1.015 4.892-2.456 5.216-4.94h-.112a3.53 3.53 0 0 0 .086-.528c-4.938-.098-9.296-3.607-11.765-7.864a7.935 7.935 0 0 1-1.19-3.366c.018-.273.064-.543.137-.807.158-.4.284-.81.376-1.23.02-.168.02-.338 0-.506v-.023c.12-.913-.414-1.792-1.084-2.422-.67-.631-1.487-1.087-2.175-1.695-2.123-1.868-2.767-4.864-2.808-7.717v-.15c.023-1.22.12-2.446.11-3.669a15.525 15.525 0 0 0-.091-2.079c-.203-1.728-.859-3.487-2.213-4.589-1.79-1.454-4.2-1.405-6.616-1.355-2.353.048-4.712.096-6.515-1.245-.892-.66-1.61-1.645-2.687-1.886a2.549 2.549 0 0 0-.598-.068c-.626 0-1.258.2-1.86.4zM14.65 64.098l2.69-4.377.11 1.283c.022 1.438-.034 3.928-.117 6.687l-2.683-3.593zm38.64 4.215.127-.03-.207.196.245-.049a7.676 7.676 0 0 0 1.524 3.072c1.534 1.712-.298 2.186-.443 2.22l-4.464-1.44a20.258 20.258 0 0 1 2.762-3.425l.376-.378-.139.03.218-.196zM48.683 203.2l.082-1.237-.082 10.105V203.2z" mask="url(#f)"/></g><path fill="#A27772" d="m314.92 265.852-.524 9.917-3.326-.832-.702-4.127z"/><path fill="#000" d="m314.92 265.852-.524 9.917-3.326-.832-.702-4.127z"/><path fill="#CC818C" d="m327.128 277.087 5.075 1.054 3.753-3.336v-9.394l.083-1.284v-.038l.019-.27.682-10.43s5.076-17.384 5.864-20.708c.56-2.368.327-9.51.142-13.457-.074-1.618-.142-2.7-.142-2.7l-11.2-2.721-.237 8.66-.819 30.27a16.753 16.753 0 0 1-1.148 5.63l-.038.101a24.635 24.635 0 0 0-1.625 7.933l-.375 9.62v.268l-.034.802z"/><path fill="#000" d="M336.054 263.822v.268l.019-.272zm-8.926 13.265 5.075 1.054 3.753-3.336v-.798a1.07 1.07 0 0 1-.54.862l-.053.03a10.067 10.067 0 0 1-5.698 1.13l-1.982-.17a2.08 2.08 0 0 0-.521.128v.267l-.034.833z"/><path fill="#B07473" d="m335.374 275.162.053-.03c.337-.188.546-.546.544-.933l.083-10.114s1.096-.779.833 2.775c-.263 3.555-.439 8.867-.439 8.867s-.041 5.795-5.555 5.795c0 0-5.514 1.05-5.473-2.109.041-3.159 2.278-3.29 2.278-3.29l1.978.173a10.11 10.11 0 0 0 5.698-1.134"/><path fill="#CC818C" d="M300.699 274.937c.13 2.281 6.824.964 6.824.964l4.504-8.777s3.754-2.9 1.877-5.444a3.927 3.927 0 0 1-.278-.433v-.023c-.041-.068-.075-.135-.113-.207-1.35-2.688-.686-7.097-.686-7.097s1.749-12.802 2.364-16.19c.432-2.391.256-10.219.109-14.602a272.748 272.748 0 0 0-.109-3.045l-11.118-2.982v3.324c-.022 2.749-.105 6.597-.375 9.097-.48 4.258 1.227 18.347 1.227 18.347l.59 12.824a11.927 11.927 0 0 1-1.476 6.224c-1.396 2.56-3.213 6.163-3.34 7.76a1.501 1.501 0 0 0 0 .26"/><path fill="#000" d="M300.699 274.937c.13 2.281 6.824.964 6.824.964l4.504-8.777s3.754-2.9 1.877-5.444a3.927 3.927 0 0 1-.278-.433c-.06 1.329-1.502 4.646-1.502 4.646s-3.72 7.466-4.88 9.175c-1.159 1.71-6.324-.316-6.515-.376-.017.08-.027.162-.03.245"/><path fill="#B07473" d="M313.506 261.01s2.2-.512 1.546 5.237a3.712 3.712 0 0 1-1.745 3.287c-1.573.994-4.005 3.128-5.233 7.281a3.974 3.974 0 0 1-3.055 3.875c-1.986.463-4.463.873-5.897.47-2.67-.752-1.501-2.586-1.501-2.586l3.063-3.645s5.337 2.109 6.52.396c1.182-1.714 4.88-9.176 4.88-9.176s2.09-4.658 1.422-5.14"/><path fill="#000" d="m331.418 214.846-.236 8.66c3.003-.29 5.12-.698 5.487-1.266.785-1.223 3.653-1.743 6.093-1.954-.075-1.62-.143-2.7-.143-2.7l-11.2-2.74zm-27.356 6.618a4.167 4.167 0 0 1 1.227-1.483c1.183-.659 1.055 4.213 1.055 4.213s3.922.038 8.949-.026c-.057-1.822-.11-3.046-.11-3.046l-11.117-2.982s.015 1.39-.004 3.324"/><path fill="#444053" d="M302.797 222.624s1.314-3.565 2.492-4.22c1.179-.656 1.055 4.213 1.055 4.213s28.88.263 30.325-1.977c1.446-2.24 9.846-2.104 9.846-2.104s-.262-27.92-.92-38.454c-.656-10.535-1.707-20.147-4.331-23.042-1.7-1.883-4.13-7.94-5.608-11.985a145.53 145.53 0 0 1-1.351-3.818l-27.567 1.582-.225 2.236-2.928 29.368s-.375 32.38-1.577 39.768c-1.2 7.387.789 8.433.789 8.433"/><path fill="#000" d="M334.444 220.659c1.441-2.236 9.845-2.105 9.845-2.105s-.263-27.918-.92-38.453c-.656-10.535-1.707-20.147-4.331-23.042-1.7-1.883-4.13-7.941-5.608-11.985a152.748 152.748 0 0 1-1.31-3.697l2.14-.12s.536 1.607 1.35 3.817c1.502 4.044 3.909 10.11 5.61 11.985 2.627 2.895 3.674 12.507 4.33 23.042.658 10.535.905 38.434.905 38.434s-8.4-.135-9.842 2.124c-1.235 1.912-22.488 2-28.659 1.984 7.913-.038 25.364-.275 26.49-1.984m-31.392-2.259c.533-.298.8.527.93 1.506-.475.868-.89 1.769-1.242 2.696 0 0-.75-.41-1.05-2.493.416-.742.9-1.45 1.362-1.71"/><path fill="#585268" d="M311.314 73.691c-1.907 2.613.022 6.322-2.024 8.86-.675.84-1.715 1.438-2.42 2.259-1.307 1.528-1.254 3.6-.613 5.395.642 1.796 1.803 3.426 2.598 5.173.345.754.623 1.608.266 2.361-.247.524-.75.919-1.17 1.374-1.314 1.473-1.352 3.52-.646 5.253.705 1.732 2.06 3.234 3.378 4.695.526.58 1.19 1.216 2.064 1.201a2.91 2.91 0 0 0 1.3-.43 13.71 13.71 0 0 0 6.595-7.774c.946-3.148.746-6.53-.563-9.545-1.126-2.662-2.958-5.214-2.973-8.03 0-2.233 1.144-4.365 1.347-6.59.248-2.7-1.347-6.992-4.598-8.17.214 1.743-1.558 2.643-2.541 3.968"/><path fill="#000" d="M311.314 73.691c-1.907 2.613.022 6.322-2.024 8.86-.675.84-1.715 1.438-2.42 2.259-1.307 1.528-1.254 3.6-.613 5.395.642 1.796 1.803 3.426 2.598 5.173.345.754.623 1.608.266 2.361-.247.524-.75.919-1.17 1.374-1.314 1.473-1.352 3.52-.646 5.253.705 1.732 2.06 3.234 3.378 4.695.526.58 1.19 1.216 2.064 1.201a2.91 2.91 0 0 0 1.3-.43 13.71 13.71 0 0 0 6.595-7.774c.946-3.148.746-6.53-.563-9.545-1.126-2.662-2.958-5.214-2.973-8.03 0-2.233 1.144-4.365 1.347-6.59.248-2.7-1.347-6.992-4.598-8.17.214 1.743-1.558 2.643-2.541 3.968m21.166 94.926c-3.82.204-7.417 1.85-10.761 3.713-3.345 1.864-6.58 3.99-10.18 5.3m18.565.016a15.78 15.78 0 0 0-9.924 4.839c-.927.986-1.727 2.093-2.695 3.038a11.994 11.994 0 0 1-5.32 3.012m18.724-4.021a17.336 17.336 0 0 0-7.977 4.823c-.585.632-1.126 1.314-1.704 1.943-3.164 3.388-7.63 5.214-11.943 6.924"/><path fill="#CC818C" d="M330.562 89.223a79.41 79.41 0 0 0 .789 9.149c.352 2.16.855 4.085 1.576 4.94 2.099 2.503-10.24 5.862-10.24 5.862l-7.286-5.648s5.777-5.335 3.086-10.542c-2.692-5.207 12.075-3.761 12.075-3.761"/><path fill="#000" d="M306.513 145.055h29.143a147.684 147.684 0 0 1-1.351-3.817l-27.567 1.58-.225 2.237z"/><path fill="#67647E" d="M304.636 144.528h31.155c-.874-3.14 0-6.05 1.25-8.283a18.29 18.29 0 0 1 3.262-4.247l.214-.192 10.886-2.421.585-.128s.086-19.839-6.914-22.56c-7-2.723-11.205-6.401-11.205-6.401l-9.624 2.982-7.09-3.596c-2.275 2.459-8.315 1.506-8.315 1.506-9.89 1.13-9.89 8.603-9.89 8.603s5.776 13.52 6.215 13.52c.44 0-.529 21.217-.529 21.217"/><path fill="#000" d="M315.394 131.915s-6.355-1.412-8.517-3.882m40.554-3.52-7.357 6.058c.053.479.135.954.244 1.423l.214-.192 10.886-2.42-3.987-4.87zm-19.954 17.91s1.614.912 4.084 2.105h4.234c-.875-3.14 0-6.05 1.25-8.283l-7.48-2.429c2.551 2.372-2.088 8.607-2.088 8.607"/><path fill="#67647E" d="m303.322 107.397-4.376 2.368-4.29 10.885s-4.464 11.94-4.028 15.102c0 0-1.573 7.458 1.227 8.776l7.305 3.313a.674.674 0 0 0 .874-.937c-1.04-1.977-2.18-5.064-.376-6.777l-2.101-4.387 7.608-12.455 2.534-4.284-4.377-11.604z"/><path fill="#000" d="M313.048 129.423c.375 1.55 1.66 3.934 5.893 4.834l4.662 3.818 4.943 2.259 2.012.915.857-6.19-1.941-1.066-2.252-1.238s-5.101-9.277-13.183-5.358a1.798 1.798 0 0 0-.99 2.026"/><path fill="#CC818C" d="M313.315 128.896c.375 1.55 1.659 3.934 5.892 4.834l4.662 3.822 4.944 2.259 2.012.915.856-6.19-1.94-1.062-2.253-1.243s-5.1-9.273-13.182-5.357a1.797 1.797 0 0 0-.991 2.022"/><path fill="#000" d="M322.42 74.606c6.236 0 11.292 5.07 11.292 11.326 0 6.255-5.056 11.325-11.291 11.325-6.236 0-11.291-5.07-11.291-11.325 0-6.255 5.055-11.326 11.29-11.326"/><path fill="#CC818C" d="M322.42 74.343c6.236 0 11.292 5.07 11.292 11.325 0 6.255-5.056 11.326-11.291 11.326-6.236 0-11.291-5.07-11.291-11.326 0-6.255 5.055-11.325 11.29-11.325"/><path fill="#000" d="m329.414 109.863-3.378-6.62s4.97-2.01 5.33-4.344c.36-2.335 4.76 2.733 3.806 4.412-.954 1.68-5.758 6.552-5.758 6.552"/><path fill="#67647E" d="m329.414 109.336-3.378-6.62s4.97-2.01 5.33-4.344c.36-2.335 4.76 2.737 3.806 4.412-.954 1.676-5.758 6.552-5.758 6.552"/><path fill="#F6F8FB" d="m301.633 126.43 18.768 25.297s-6.914 3.765-16.455-2.986l-4.13-4.913-11.73-19.842 13.547 2.443z"/><path fill="#CC818C" d="m297.94 140.183 1.708-.045s10.435-10.166 12.995-5.023c2.56 5.143-6.498 9.94-6.498 9.94l-2.755 1.506-3.611 1.055-2.298-3.095.459-4.338z"/><path fill="#000" d="M300.458 145.673c.158.583.308 1.227.045 1.77a.67.67 0 0 1-.311.339.753.753 0 0 1-.375.052 3.58 3.58 0 0 1-2.354-1.171c-.6-.67-1.114-1.414-1.528-2.214-.465-.809-.95-1.713-.78-2.636.183-1.009 1.08-1.709 1.936-2.259 1.73-1.148 1.772.189 2.166 1.665l1.201 4.454z"/><path fill="#67647E" d="M300.196 145.673c.157.583.307 1.227.045 1.77a.672.672 0 0 1-.312.339.753.753 0 0 1-.375.052 3.58 3.58 0 0 1-2.354-1.171c-.6-.67-1.114-1.414-1.528-2.214-.465-.809-.95-1.713-.78-2.636.183-1.009 1.08-1.709 1.936-2.259 1.731-1.148 1.772.189 2.166 1.665l1.202 4.454z"/><path fill="#000" d="m305.161 123.285.875-1.48-.766 2.75zm23.652 16.511 2.012.915.856-6.19-1.94-1.062c1.325 1.528.164 4.367-.928 6.337m8.074-7.184s-6.498.395-9.252-1.382"/><path fill="#000" d="M336.08 136.768a18.384 18.384 0 0 1 3.266-4.247c.309-.195.63-.37.96-.527l10.135-2.086.586-.128s.09-19.838-6.914-22.56a42.255 42.255 0 0 1-10.92-6.171l.77-.237s4.2 3.686 11.2 6.4c7.002 2.715 6.923 22.568 6.923 22.568h-1.051l-10.375 1.992-.586.561a20.052 20.052 0 0 0-3.314 4.394 11.057 11.057 0 0 0-.868 8.328h-1.073c-.863-3.14.026-6.05 1.261-8.287m-27.66-35.011c.168-.023.33-.05.503-.068.71.1 1.426.16 2.143.177a19.29 19.29 0 0 1-2.646-.11m14.857 2.037-6.411-3.241c.132-.105.258-.22.375-.343l6.688 3.389-.652.195z"/><path fill="#67647E" d="m347.694 123.986 4.29 5.271.875 14.307s1.126 7.286-7.177 5.531c-8.303-1.754-17.942-7.199-17.942-7.199s4.639-6.235 2.101-8.603l11.903 3.863s2.012-.44.436-2.195c-1.577-1.754-1.854-4.917-1.854-4.917l7.368-6.058z"/><path fill="#000" d="m349.62 139.087 2.364 2.72a3.413 3.413 0 0 1-2.364-2.72m-4.024-.44 3.675 4.74-1.836.441zm-36.655-58.178c-.405-.99-.097-2.135.376-3.088.473-.952 1.152-1.818 1.501-2.827.545-1.506.376-3.193.969-4.677 1.04-2.598 3.994-3.765 6.644-4.642.78-.26 1.614-.523 2.417-.331 1.058.256 1.768 1.23 2.627 1.882 3.596 2.689 9.44-.27 12.917 2.576 1.332 1.088 1.978 2.835 2.177 4.544.199 1.71 0 3.445-.019 5.17-.057 3.012.503 6.317 2.759 8.317.68.602 1.479 1.058 2.14 1.679.66.621 1.182 1.506 1.066 2.398a8.19 8.19 0 0 1-.376 1.216c-.45 1.574.218 3.242 1.032 4.662 2.433 4.217 6.716 7.692 11.577 7.79-.327 2.458-2.872 3.885-5.132 4.894-2.878 1.284-5.904 2.546-9.05 2.384-3.145-.162-6.426-2.18-6.985-5.272-.192-1.065-.165-2.372-1.089-2.933-.555-.338-1.276-.252-1.876-.508-.868-.376-1.3-1.333-1.584-2.236a20.249 20.249 0 0 1-.935-5.738c-.038-2.308.27-4.827-1.036-6.729-1.209-1.758-3.356-2.635-4.748-4.27-1.284-1.505-2.684-3.305-4.79-3.591-2.83-.41-8.859 3.562-10.582-.67"/><path fill="#585268" d="M308.941 79.942c-.405-.99-.097-2.135.376-3.088.473-.952 1.152-1.818 1.501-2.827.545-1.506.376-3.193.969-4.677 1.04-2.598 3.994-3.765 6.644-4.642.78-.26 1.614-.523 2.417-.331 1.058.256 1.768 1.23 2.627 1.882 3.596 2.692 9.44-.27 12.917 2.575 1.332 1.092 1.978 2.836 2.177 4.545.199 1.71 0 3.445-.019 5.17-.057 3.012.503 6.317 2.759 8.317.68.602 1.479 1.058 2.14 1.679.66.621 1.182 1.506 1.066 2.398a8.34 8.34 0 0 1-.376 1.22c-.45 1.57.218 3.242 1.032 4.658 2.433 4.216 6.716 7.692 11.577 7.79-.327 2.458-2.872 3.885-5.132 4.894-2.878 1.288-5.904 2.545-9.05 2.384-3.145-.162-6.426-2.18-6.985-5.29-.192-1.066-.165-2.372-1.089-2.933-.555-.34-1.276-.253-1.876-.509-.868-.376-1.3-1.333-1.584-2.236a20.249 20.249 0 0 1-.935-5.738c-.038-2.308.27-4.827-1.036-6.729-1.209-1.758-3.356-2.635-4.748-4.27-1.284-1.505-2.684-3.305-4.79-3.591-2.83-.373-8.859 3.58-10.582-.651"/><path fill="#000" d="m316.944 109.042 6.471-5.271s-4.43-2.41-4.958-4.465c-.53-2.056-4.073.975-3.712 2.82.36 1.845 2.2 6.916 2.2 6.916"/><path fill="#67647E" d="m317.207 108.251 6.471-5.27s-4.43-2.41-4.958-4.466c-.53-2.056-4.073.975-3.712 2.82.36 1.845 2.199 6.916 2.199 6.916"/><path fill="#000" d="M323.93 106.877a.515.515 0 1 1-.002 1.03.515.515 0 0 1 .002-1.03m0 2.869a.515.515 0 1 1-.002 1.03.515.515 0 0 1 .002-1.03m0 2.865a.515.515 0 1 1-.002 1.03.515.515 0 0 1 .002-1.03M311.547 72.626c.51-1.412.4-2.993.878-4.413a5.098 5.098 0 0 0-.544 1.01c-.593 1.483-.428 3.177-.969 4.68 0 .026-.026.056-.037.086.264-.433.49-.89.672-1.363m40.835 35.479c-2.88 1.287-5.904 2.545-9.053 2.383-3.15-.162-6.423-2.18-6.983-5.29-.19-1.066-.164-2.372-1.088-2.933-.556-.339-1.276-.252-1.877-.508-.87-.377-1.298-1.333-1.584-2.237a20.252 20.252 0 0 1-.934-5.745c-.038-2.309.266-4.827-1.037-6.729-1.208-1.758-3.355-2.635-4.748-4.27-1.287-1.505-2.684-3.305-4.793-3.591-2.89-.377-8.922 3.577-10.641-.655a3.332 3.332 0 0 1 .108-2.448c-.123.211-.244.422-.353.637-.488.952-.796 2.097-.375 3.087 1.723 4.232 7.751.26 10.646.655 2.105.286 3.505 2.097 4.793 3.592 1.392 1.619 3.535 2.511 4.744 4.273 1.306 1.883 1.003 4.42 1.04 6.725.031 1.95.344 3.883.931 5.742.285.9.717 1.882 1.584 2.236.6.252 1.321.17 1.877.508.92.558.897 1.883 1.084 2.93.56 3.11 3.84 5.132 6.986 5.293 3.145.162 6.175-1.099 9.05-2.387 2.072-.922 4.38-2.206 5-4.307-1.006 1.382-2.763 2.32-4.377 3.039"/></g></svg>