<svg xmlns="http://www.w3.org/2000/svg" version="1.1" xmlns:xlink="http://www.w3.org/1999/xlink" xmlns:svgjs="http://svgjs.dev/svgjs" width="1500" height="515" viewBox="0 0 1500 515"><g transform="matrix(1,0,0,1,-0.9090909090908781,-0.5966357220420377)"><svg viewBox="0 0 396 136" data-background-color="#f4f4f4" preserveAspectRatio="xMidYMid meet" height="515" width="1500" xmlns="http://www.w3.org/2000/svg" xmlns:xlink="http://www.w3.org/1999/xlink"><g id="tight-bounds" transform="matrix(1,0,0,1,0.2400000000000091,0.15755817125770477)"><svg viewBox="0 0 395.52 135.6848836574846" height="135.6848836574846" width="395.52"><g><svg viewBox="0 0 395.52 135.6848836574846" height="135.6848836574846" width="395.52"><g><svg viewBox="0 0 664.1787253086964 227.84944647877956" height="135.6848836574846" width="395.52"><g transform="matrix(1,0,0,1,268.65872530869643,45.736488257718634)"><svg viewBox="0 0 395.52 136.3764699633423" height="136.3764699633423" width="395.52"><g id="textblocktransform"><svg viewBox="0 0 395.52 136.3764699633423" height="136.3764699633423" width="395.52" id="textblock"><g><svg viewBox="0 0 395.52 86.43250230840258" height="86.43250230840258" width="395.52"><g transform="matrix(1,0,0,1,0,0)"><svg width="395.52" viewBox="1.2 -34.9 162.44 35.5" height="86.43250230840258" data-palette-color="#284158"><path d="M25-29.45L16.2-29.45 16.2 0 9.95 0 9.95-29.45 1.2-29.45 1.2-34.9 25-34.9 25-29.45ZM40.95 0L40.95-4.4 40.25-4.4Q38.75 0.6 33.9 0.6L33.9 0.6Q30.4 0.6 28.52-1.78 26.65-4.15 26.65-8.6L26.65-8.6 26.65-26.1 32.7-26.1 32.7-9.6Q32.7-4.45 36.5-4.45L36.5-4.45Q38.35-4.45 39.65-5.55 40.95-6.65 40.95-8.6L40.95-8.6 40.95-26.1 47-26.1 47 0 40.95 0ZM73.05-29.45L64.25-29.45 64.25 0 58 0 58-29.45 49.25-29.45 49.25-34.9 73.05-34.9 73.05-29.45ZM88.99 0L88.99-4.4 88.29-4.4Q86.79 0.6 81.94 0.6L81.94 0.6Q78.44 0.6 76.57-1.78 74.69-4.15 74.69-8.6L74.69-8.6 74.69-26.1 80.74-26.1 80.74-9.6Q80.74-4.45 84.54-4.45L84.54-4.45Q86.39-4.45 87.69-5.55 88.99-6.65 88.99-8.6L88.99-8.6 88.99-26.1 95.04-26.1 95.04 0 88.99 0ZM107.69 0L101.64 0 101.64-26.1 107.69-26.1 107.69-20.75 108.39-20.75Q108.84-23.35 110.27-24.73 111.69-26.1 113.99-26.1L113.99-26.1 115.29-26.1 115.29-19.9 113.29-19.9Q110.44-19.9 109.07-19 107.69-18.1 107.69-15.85L107.69-15.85 107.69 0ZM125.54 0L119.49 0 119.49-26.1 125.54-26.1 125.54-21.75 126.24-21.75Q127.79-26.7 132.49-26.7L132.49-26.7Q135.99-26.7 137.89-24.33 139.79-21.95 139.79-17.55L139.79-17.55 139.79 0 133.74 0 133.74-16.5Q133.74-21.6 129.94-21.6L129.94-21.6Q128.09-21.6 126.81-20.53 125.54-19.45 125.54-17.5L125.54-17.5 125.54 0ZM153.99 0.6L153.99 0.6Q150.74 0.6 148.29-0.58 145.84-1.75 143.99-4.1L143.99-4.1 147.69-7.7Q148.94-5.95 150.49-5.05 152.04-4.15 154.09-4.15L154.09-4.15Q157.89-4.15 157.89-7.35L157.89-7.35Q157.89-8.6 157.26-9.33 156.64-10.05 155.14-10.3L155.14-10.3 152.69-10.75Q148.59-11.5 146.74-13.3 144.89-15.1 144.89-18.55L144.89-18.55Q144.89-22.65 147.29-24.68 149.69-26.7 154.09-26.7L154.09-26.7Q157.14-26.7 159.36-25.7 161.59-24.7 163.24-22.75L163.24-22.75 159.69-19.2Q158.69-20.45 157.26-21.2 155.84-21.95 154.09-21.95L154.09-21.95Q150.59-21.95 150.59-18.8L150.59-18.8Q150.59-17.5 151.29-16.82 151.99-16.15 153.49-15.9L153.49-15.9 155.99-15.45Q160.09-14.7 161.86-12.93 163.64-11.15 163.64-7.95L163.64-7.95Q163.64-3.9 161.14-1.65 158.64 0.6 153.99 0.6Z" opacity="1" transform="matrix(1,0,0,1,0,0)" fill="#284158" class="wordmark-text-0" data-fill-palette-color="primary" id="text-0"></path></svg></g></svg></g><g transform="matrix(1,0,0,1,13.843199999999996,106.83714172336101)"><svg viewBox="0 0 367.8336 29.53932823998126" height="29.53932823998126" width="367.8336"><g transform="matrix(1,0,0,1,0,0)"><svg width="367.8336" viewBox="0.4 -40.35 639.97 51.400000000000006" height="29.53932823998126" data-palette-color="#454b4f"><path d="M28-34.65L35.2-34.65 30.85 0 20.6 0 17.75-26.85 14.6 0 4.6 0 0.4-34.65 7.9-34.65 10.4-6 13.8-34.65 21.9-34.65 25.1-6 28-34.65ZM51.45-27.4Q54.3-27.4 55.92-25.35 57.55-23.3 57.55-19.85L57.55-19.85 57.55 0 50 0 50-19.05Q50-21.65 48.55-21.65L48.55-21.65Q47.1-21.65 45.4-18.45L45.4-18.45 45.4 0 37.85 0 37.85-37.1 45.4-37.9 45.4-23.75Q46.65-25.65 48.1-26.53 49.55-27.4 51.45-27.4L51.45-27.4ZM82.05-13.8Q82.05-12.2 81.9-11.05L81.9-11.05 68.4-11.05Q68.65-7.45 69.72-6.08 70.8-4.7 72.84-4.7L72.84-4.7Q74.2-4.7 75.45-5.23 76.7-5.75 78.15-6.85L78.15-6.85 81.25-2.75Q77.55 0.85 72.3 0.85L72.3 0.85Q66.7 0.85 63.8-2.83 60.9-6.5 60.9-13.1L60.9-13.1Q60.9-19.7 63.67-23.55 66.45-27.4 71.59-27.4L71.59-27.4Q76.5-27.4 79.27-23.93 82.05-20.45 82.05-13.8L82.05-13.8ZM74.7-15.6L74.7-15.95Q74.7-19.35 74.02-20.88 73.34-22.4 71.65-22.4L71.65-22.4Q70.15-22.4 69.37-20.93 68.59-19.45 68.4-15.6L68.4-15.6 74.7-15.6ZM98.19-27.3Q99.24-27.3 100.29-26.9L100.29-26.9 99.04-19.65Q98.14-19.95 97.19-19.95L97.19-19.95Q95.34-19.95 94.42-18.53 93.49-17.1 92.89-14.25L92.89-14.25 92.89 0 85.34 0 85.34-26.55 91.89-26.55 92.44-22.2Q94.34-27.3 98.19-27.3L98.19-27.3ZM122.44-13.8Q122.44-12.2 122.29-11.05L122.29-11.05 108.79-11.05Q109.04-7.45 110.12-6.08 111.19-4.7 113.24-4.7L113.24-4.7Q114.59-4.7 115.84-5.23 117.09-5.75 118.54-6.85L118.54-6.85 121.64-2.75Q117.94 0.85 112.69 0.85L112.69 0.85Q107.09 0.85 104.19-2.83 101.29-6.5 101.29-13.1L101.29-13.1Q101.29-19.7 104.07-23.55 106.84-27.4 111.99-27.4L111.99-27.4Q116.89-27.4 119.67-23.93 122.44-20.45 122.44-13.8L122.44-13.8ZM115.09-15.6L115.09-15.95Q115.09-19.35 114.42-20.88 113.74-22.4 112.04-22.4L112.04-22.4Q110.54-22.4 109.77-20.93 108.99-19.45 108.79-15.6L108.79-15.6 115.09-15.6ZM135.04-34.65L142.89-34.65 142.89-6.2 153.79-6.2 152.99 0 135.04 0 135.04-34.65ZM176.48-13.8Q176.48-12.2 176.33-11.05L176.33-11.05 162.83-11.05Q163.08-7.45 164.16-6.08 165.23-4.7 167.28-4.7L167.28-4.7Q168.63-4.7 169.88-5.23 171.13-5.75 172.58-6.85L172.58-6.85 175.68-2.75Q171.98 0.85 166.73 0.85L166.73 0.85Q161.13 0.85 158.23-2.83 155.33-6.5 155.33-13.1L155.33-13.1Q155.33-19.7 158.11-23.55 160.88-27.4 166.03-27.4L166.03-27.4Q170.93-27.4 173.71-23.93 176.48-20.45 176.48-13.8L176.48-13.8ZM169.13-15.6L169.13-15.95Q169.13-19.35 168.46-20.88 167.78-22.4 166.08-22.4L166.08-22.4Q164.58-22.4 163.81-20.93 163.03-19.45 162.83-15.6L162.83-15.6 169.13-15.6ZM198.03-7.05Q198.03-5.8 198.33-5.2 198.63-4.6 199.38-4.25L199.38-4.25 197.83 0.7Q195.68 0.5 194.31-0.33 192.93-1.15 192.18-2.9L192.18-2.9Q189.88 0.85 185.63 0.85L185.63 0.85Q182.33 0.85 180.38-1.43 178.43-3.7 178.43-7.45L178.43-7.45Q178.43-11.8 181.13-14.08 183.83-16.35 189.03-16.35L189.03-16.35 190.63-16.35 190.63-17.75Q190.63-20.15 189.91-21.08 189.18-22 187.33-22L187.33-22Q185.03-22 181.63-20.65L181.63-20.65 179.93-25.45Q181.98-26.4 184.31-26.9 186.63-27.4 188.73-27.4L188.73-27.4Q193.43-27.4 195.73-25.13 198.03-22.85 198.03-18.15L198.03-18.15 198.03-7.05ZM187.93-4.5Q188.78-4.5 189.48-5.15 190.18-5.8 190.63-7L190.63-7 190.63-12.15 189.73-12.15Q187.68-12.15 186.76-11.18 185.83-10.2 185.83-8.1L185.83-8.1Q185.83-6.35 186.38-5.43 186.93-4.5 187.93-4.5L187.93-4.5ZM215.48-27.3Q216.53-27.3 217.58-26.9L217.58-26.9 216.33-19.65Q215.43-19.95 214.48-19.95L214.48-19.95Q212.63-19.95 211.7-18.53 210.78-17.1 210.18-14.25L210.18-14.25 210.18 0 202.63 0 202.63-26.55 209.18-26.55 209.73-22.2Q211.63-27.3 215.48-27.3L215.48-27.3ZM233.13-27.4Q235.98-27.4 237.6-25.35 239.23-23.3 239.23-19.85L239.23-19.85 239.23 0 231.68 0 231.68-19.05Q231.68-21.65 230.23-21.65L230.23-21.65Q228.78-21.65 227.08-18.45L227.08-18.45 227.08 0 219.53 0 219.53-26.55 226.08-26.55 226.63-23.4Q227.93-25.4 229.48-26.4 231.03-27.4 233.13-27.4L233.13-27.4ZM243.52-26.55L251.07-26.55 251.07 0 243.52 0 243.52-26.55ZM247.22-40.35Q249.17-40.35 250.35-39.13 251.52-37.9 251.52-36L251.52-36Q251.52-34.15 250.32-32.93 249.12-31.7 247.22-31.7L247.22-31.7Q245.32-31.7 244.12-32.93 242.92-34.15 242.92-36L242.92-36Q242.92-37.9 244.12-39.13 245.32-40.35 247.22-40.35L247.22-40.35ZM269.12-27.4Q271.97-27.4 273.6-25.35 275.22-23.3 275.22-19.85L275.22-19.85 275.22 0 267.67 0 267.67-19.05Q267.67-21.65 266.22-21.65L266.22-21.65Q264.77-21.65 263.07-18.45L263.07-18.45 263.07 0 255.52 0 255.52-26.55 262.07-26.55 262.62-23.4Q263.92-25.4 265.47-26.4 267.02-27.4 269.12-27.4L269.12-27.4ZM298.42-30.45L300.27-25.05Q298.42-24.05 294.07-24.05L294.07-24.05Q296.27-23.05 297.32-21.38 298.37-19.7 298.37-17.15L298.37-17.15Q298.37-13.2 295.79-10.75 293.22-8.3 288.77-8.3L288.77-8.3Q287.37-8.3 286.37-8.6L286.37-8.6Q285.57-8.05 285.57-6.9L285.57-6.9Q285.57-6.05 286.09-5.6 286.62-5.15 288.02-5.15L288.02-5.15 290.72-5.15Q295.02-5.15 297.44-3.05 299.87-0.95 299.87 2.35L299.87 2.35Q299.87 6.3 296.79 8.68 293.72 11.05 288.02 11.05L288.02 11.05Q281.87 11.05 279.52 8.9 277.17 6.75 277.17 2.55L277.17 2.55 283.87 2.55Q283.87 4.45 284.74 5.28 285.62 6.1 288.07 6.1L288.07 6.1Q292.37 6.1 292.37 2.9L292.37 2.9Q292.37 1.45 291.54 0.73 290.72 0 289.02 0L289.02 0 287.02 0Q283.07 0 281.27-1.38 279.47-2.75 279.47-5.15L279.47-5.15Q279.47-6.6 280.22-7.88 280.97-9.15 282.27-10.05L282.27-10.05Q280.12-11.4 279.14-13.2 278.17-15 278.17-17.7L278.17-17.7Q278.17-22.2 280.92-24.75 283.67-27.3 288.42-27.3L288.42-27.3Q291.57-27.3 293.74-28.1 295.92-28.9 298.42-30.45L298.42-30.45ZM288.47-22.4Q287.02-22.4 286.29-21.33 285.57-20.25 285.57-17.8L285.57-17.8Q285.57-13.15 288.42-13.15L288.42-13.15Q289.82-13.15 290.52-14.2 291.22-15.25 291.22-17.9L291.22-17.9Q291.22-20.3 290.54-21.35 289.87-22.4 288.47-22.4L288.47-22.4ZM309.46-34.65L331.81-34.65 331.01-28.65 324.36-28.65 324.36 0 316.51 0 316.51-28.65 309.46-28.65 309.46-34.65ZM352.21-7.05Q352.21-5.8 352.51-5.2 352.81-4.6 353.56-4.25L353.56-4.25 352.01 0.7Q349.86 0.5 348.49-0.33 347.11-1.15 346.36-2.9L346.36-2.9Q344.06 0.85 339.81 0.85L339.81 0.85Q336.51 0.85 334.56-1.43 332.61-3.7 332.61-7.45L332.61-7.45Q332.61-11.8 335.31-14.08 338.01-16.35 343.21-16.35L343.21-16.35 344.81-16.35 344.81-17.75Q344.81-20.15 344.09-21.08 343.36-22 341.51-22L341.51-22Q339.21-22 335.81-20.65L335.81-20.65 334.11-25.45Q336.16-26.4 338.49-26.9 340.81-27.4 342.91-27.4L342.91-27.4Q347.61-27.4 349.91-25.13 352.21-22.85 352.21-18.15L352.21-18.15 352.21-7.05ZM342.11-4.5Q342.96-4.5 343.66-5.15 344.36-5.8 344.81-7L344.81-7 344.81-12.15 343.91-12.15Q341.86-12.15 340.94-11.18 340.01-10.2 340.01-8.1L340.01-8.1Q340.01-6.35 340.56-5.43 341.11-4.5 342.11-4.5L342.11-4.5ZM356.81-37.1L364.36-37.9 364.36 0 356.81 0 356.81-37.1ZM371.01-26.55L378.21-26.55 371.91-14.85 378.61 0 370.66 0 364.51-14.5 371.01-26.55ZM400.71-13.8Q400.71-12.2 400.56-11.05L400.56-11.05 387.06-11.05Q387.31-7.45 388.38-6.08 389.46-4.7 391.51-4.7L391.51-4.7Q392.86-4.7 394.11-5.23 395.36-5.75 396.81-6.85L396.81-6.85 399.91-2.75Q396.21 0.85 390.96 0.85L390.96 0.85Q385.36 0.85 382.46-2.83 379.56-6.5 379.56-13.1L379.56-13.1Q379.56-19.7 382.33-23.55 385.11-27.4 390.26-27.4L390.26-27.4Q395.16-27.4 397.93-23.93 400.71-20.45 400.71-13.8L400.71-13.8ZM393.36-15.6L393.36-15.95Q393.36-19.35 392.68-20.88 392.01-22.4 390.31-22.4L390.31-22.4Q388.81-22.4 388.03-20.93 387.26-19.45 387.06-15.6L387.06-15.6 393.36-15.6ZM412.1-27.4Q414.55-27.4 416.7-26.55 418.85-25.7 420.45-24.15L420.45-24.15 417.7-20.1Q414.95-22 412.75-22L412.75-22Q411.55-22 410.88-21.4 410.2-20.8 410.2-19.75L410.2-19.75Q410.2-18.6 411.05-17.88 411.9-17.15 414.7-16L414.7-16Q418.05-14.6 419.65-12.75 421.25-10.9 421.25-7.8L421.25-7.8Q421.25-3.8 418.43-1.48 415.6 0.85 411.1 0.85L411.1 0.85Q408.3 0.85 405.85-0.18 403.4-1.2 401.65-3.05L401.65-3.05 405.2-6.95Q408.2-4.5 410.7-4.5L410.7-4.5Q412.05-4.5 412.83-5.2 413.6-5.9 413.6-7.15L413.6-7.15Q413.6-8.55 412.73-9.38 411.85-10.2 409.15-11.3L409.15-11.3Q405.75-12.7 404.25-14.53 402.75-16.35 402.75-19.2L402.75-19.2Q402.75-22.8 405.25-25.1 407.75-27.4 412.1-27.4L412.1-27.4ZM451.6-7.05Q451.6-5.8 451.9-5.2 452.2-4.6 452.95-4.25L452.95-4.25 451.4 0.7Q449.25 0.5 447.87-0.33 446.5-1.15 445.75-2.9L445.75-2.9Q443.45 0.85 439.2 0.85L439.2 0.85Q435.9 0.85 433.95-1.43 432-3.7 432-7.45L432-7.45Q432-11.8 434.7-14.08 437.4-16.35 442.6-16.35L442.6-16.35 444.2-16.35 444.2-17.75Q444.2-20.15 443.47-21.08 442.75-22 440.9-22L440.9-22Q438.6-22 435.2-20.65L435.2-20.65 433.5-25.45Q435.55-26.4 437.87-26.9 440.2-27.4 442.3-27.4L442.3-27.4Q447-27.4 449.3-25.13 451.6-22.85 451.6-18.15L451.6-18.15 451.6-7.05ZM441.5-4.5Q442.35-4.5 443.05-5.15 443.75-5.8 444.2-7L444.2-7 444.2-12.15 443.3-12.15Q441.25-12.15 440.32-11.18 439.4-10.2 439.4-8.1L439.4-8.1Q439.4-6.35 439.95-5.43 440.5-4.5 441.5-4.5L441.5-4.5ZM488.24-34.65L488.24 0 478.54 0 471.24-27.45Q471.74-23.1 471.99-20.18 472.24-17.25 472.24-13.1L472.24-13.1 472.24 0 465.49 0 465.49-34.65 475.19-34.65 482.49-7.2Q481.44-14.1 481.44-20.15L481.44-20.15 481.44-34.65 488.24-34.65ZM512.99-13.8Q512.99-12.2 512.84-11.05L512.84-11.05 499.34-11.05Q499.59-7.45 500.67-6.08 501.74-4.7 503.79-4.7L503.79-4.7Q505.14-4.7 506.39-5.23 507.64-5.75 509.09-6.85L509.09-6.85 512.19-2.75Q508.49 0.85 503.24 0.85L503.24 0.85Q497.64 0.85 494.74-2.83 491.84-6.5 491.84-13.1L491.84-13.1Q491.84-19.7 494.62-23.55 497.39-27.4 502.54-27.4L502.54-27.4Q507.44-27.4 510.22-23.93 512.99-20.45 512.99-13.8L512.99-13.8ZM505.64-15.6L505.64-15.95Q505.64-19.35 504.97-20.88 504.29-22.4 502.59-22.4L502.59-22.4Q501.09-22.4 500.32-20.93 499.54-19.45 499.34-15.6L499.34-15.6 505.64-15.6ZM538.64-26.55L545.69-26.55 541.29 0 532.49 0 529.99-19.75 527.54 0 518.79 0 514.34-26.55 521.59-26.55 523.59-5.7 526.54-26.55 533.69-26.55 536.49-5.7 538.64-26.55ZM555.48-34.65L577.83-34.65 577.03-28.65 570.38-28.65 570.38 0 562.53 0 562.53-28.65 555.48-28.65 555.48-34.65ZM599.28-26.55L599.28 0 592.68 0 592.38-3.05Q589.98 0.85 586.03 0.85L586.03 0.85Q583.13 0.85 581.46-1.25 579.78-3.35 579.78-6.8L579.78-6.8 579.78-26.55 587.33-26.55 587.33-7.1Q587.33-5.95 587.73-5.35 588.13-4.75 588.88-4.75L588.88-4.75Q590.48-4.75 591.73-7.55L591.73-7.55 591.73-26.55 599.28-26.55ZM616.63-27.3Q617.68-27.3 618.73-26.9L618.73-26.9 617.48-19.65Q616.58-19.95 615.63-19.95L615.63-19.95Q613.78-19.95 612.85-18.53 611.93-17.1 611.33-14.25L611.33-14.25 611.33 0 603.78 0 603.78-26.55 610.33-26.55 610.88-22.2Q612.78-27.3 616.63-27.3L616.63-27.3ZM634.27-27.4Q637.12-27.4 638.75-25.35 640.37-23.3 640.37-19.85L640.37-19.85 640.37 0 632.82 0 632.82-19.05Q632.82-21.65 631.37-21.65L631.37-21.65Q629.92-21.65 628.22-18.45L628.22-18.45 628.22 0 620.67 0 620.67-26.55 627.22-26.55 627.77-23.4Q629.07-25.4 630.62-26.4 632.17-27.4 634.27-27.4L634.27-27.4Z" opacity="1" transform="matrix(1,0,0,1,0,0)" fill="#454b4f" class="slogan-text-1" data-fill-palette-color="secondary" id="text-1"></path></svg></g></svg></g></svg></g></svg></g><g><svg viewBox="0 0 227.84944647877956 227.84944647877956" height="227.84944647877956" width="227.84944647877956"><g><svg></svg></g><g id="icon-0"><svg viewBox="0 0 227.84944647877956 227.84944647877956" height="227.84944647877956" width="227.84944647877956"><g><path d="M0 113.925c0-62.919 51.006-113.925 113.925-113.925 62.919 0 113.925 51.006 113.924 113.925 0 62.919-51.006 113.925-113.924 113.924-62.919 0-113.925-51.006-113.925-113.924zM113.925 220.055c58.614 0 106.13-47.516 106.13-106.13 0-58.614-47.516-106.13-106.13-106.13-58.614 0-106.13 47.516-106.13 106.13 0 58.614 47.516 106.13 106.13 106.13z" data-fill-palette-color="accent" fill="#589ea6" stroke="transparent"></path><ellipse rx="112.78547600699588" ry="112.78547600699588" cx="113.92472323938978" cy="113.92472323938978" fill="#589ea6" stroke="transparent" stroke-width="0" fill-opacity="1" data-fill-palette-color="accent"></ellipse></g><g transform="matrix(1,0,0,1,59.32637554970075,47.5213274005788)"><svg viewBox="0 0 109.19669537937806 132.80679167762196" height="132.80679167762196" width="109.19669537937806"><g><svg xmlns="http://www.w3.org/2000/svg" xmlns:xlink="http://www.w3.org/1999/xlink" xml:space="preserve" version="1.0" style="shape-rendering:geometricPrecision;text-rendering:geometricPrecision;image-rendering:optimizeQuality;" viewBox="13 5 74 90" x="0" y="0" fill-rule="evenodd" clip-rule="evenodd" height="132.80679167762196" width="109.19669537937806" class="icon-cg-0" data-fill-palette-color="quaternary" id="cg-0"><g fill="#dee9ff" data-fill-palette-color="quaternary"><path class="" d="M62 5c4 0 7 3 7 8 0 4-3 7-7 7-4 0-8-3-8-7 0-5 4-8 8-8z m-45 31l15 0 0 4-15 0 0-4z m-4 5l18 0 0 4-18 0 0-4z m1 5l19 0 0 4-19 0 0-4z m31 5l-32 0 0 40 5 0 0-29 22 0 0 29 5 0 0-40z m35-3l7 12 0 1 0 1-16 8 0 0 0 21c0 2-2 4-4 4-2 0-4-2-4-4l0-33-3 0 0 33c0 2-2 4-4 4-2 0-4-2-4-4l0-24 0-9 0-25-1 0-11 7c-1 0-2-1-3-2l-9-8c-1-1-1-3 0-5 1-1 4-1 5 0l7 7 9-6c2-2 4-3 7-3l12 0c0 0 2 0 3 0 5 0 8 3 8 8l0 16 1 1z m-9 4l2-2 0-17-2 0 0 19z m0 2l0 14 14-8-6-9 0 3c0 2-1 4-3 4-2 0-3-2-3-4l0-1-2 1z" fill="#dee9ff" fill-rule="nonzero" data-fill-palette-color="quaternary"></path></g></svg></g></svg></g></svg></g></svg></g></svg></g></svg></g><defs></defs></svg><rect width="395.52" height="135.6848836574846" fill="none" stroke="none" visibility="hidden"></rect></g></svg></g></svg>